<svg width="473" height="306" viewBox="0 0 473 306" fill="none" xmlns="http://www.w3.org/2000/svg">
<rect width="473" height="305.156" fill="#CCE2D8"/>
<path d="M166 210.9L166 141" stroke="#008938" stroke-width="7.65554" stroke-linecap="square"/>
<path d="M313.9 88H244" stroke="#008938" stroke-width="7.65554" stroke-linecap="square"/>
<path d="M166 14L250.004 88.25H81.9955L166 14Z" fill="#008938"/>
<path d="M166 162L81.9955 87.75L250.004 87.75L166 162Z" fill="#008938"/>
<rect width="103" height="102" transform="translate(303 39)" fill="white"/>
<path d="M397 36.5C401.694 36.5 405.5 40.3056 405.5 45V134C405.5 138.142 402.142 141.5 398 141.5H308C303.858 141.5 300.5 138.142 300.5 134V45C300.5 40.3056 304.306 36.5 309 36.5H397Z" stroke="#008938" stroke-width="5"/>
<path d="M303 45C303 41.6863 305.686 39 309 39H397C400.314 39 403 41.6863 403 45V63H303V45Z" fill="#1D70B8"/>
<path d="M310.11 49.4741C310.11 49.8634 310.159 50.238 310.256 50.5977C310.353 50.9574 310.501 51.2747 310.7 51.5498C310.899 51.8249 311.153 52.047 311.462 52.2163C311.771 52.3813 312.139 52.4639 312.566 52.4639C312.977 52.4639 313.318 52.3983 313.588 52.2671C313.863 52.1359 314.081 51.973 314.242 51.7783C314.407 51.5794 314.521 51.3657 314.585 51.1372C314.653 50.9087 314.687 50.6971 314.687 50.5024V50.4136H312.357V49.0107H316.477V54H314.864V52.9336C314.75 53.1113 314.608 53.2743 314.439 53.4224C314.27 53.5662 314.079 53.6911 313.868 53.7969C313.656 53.8984 313.423 53.9788 313.169 54.0381C312.92 54.0973 312.653 54.127 312.37 54.127C311.705 54.127 311.115 54.0063 310.599 53.7651C310.082 53.5239 309.646 53.1917 309.291 52.7686C308.94 52.3454 308.671 51.8503 308.485 51.2832C308.303 50.7161 308.212 50.1047 308.212 49.4487C308.212 48.797 308.313 48.1877 308.517 47.6206C308.724 47.0493 309.016 46.5542 309.393 46.1353C309.773 45.7121 310.23 45.3799 310.764 45.1387C311.301 44.8932 311.902 44.7705 312.566 44.7705C312.998 44.7705 313.406 44.8213 313.792 44.9229C314.181 45.0202 314.534 45.1619 314.852 45.3481C315.173 45.5301 315.457 45.7523 315.702 46.0146C315.948 46.2728 316.146 46.5605 316.299 46.8779L314.687 47.7856C314.589 47.591 314.475 47.4111 314.344 47.2461C314.213 47.0768 314.06 46.9329 313.887 46.8145C313.717 46.6917 313.523 46.5965 313.303 46.5288C313.083 46.4569 312.837 46.4209 312.566 46.4209C312.139 46.4209 311.771 46.5055 311.462 46.6748C311.153 46.8398 310.899 47.0599 310.7 47.335C310.501 47.61 310.353 47.9295 310.256 48.2935C310.159 48.6532 310.11 49.0256 310.11 49.4106V49.4741ZM321.986 44.7705C322.663 44.7705 323.271 44.8932 323.808 45.1387C324.346 45.3799 324.8 45.7121 325.173 46.1353C325.549 46.5542 325.835 47.0493 326.03 47.6206C326.229 48.1877 326.328 48.797 326.328 49.4487C326.328 50.1047 326.229 50.7161 326.03 51.2832C325.835 51.8503 325.549 52.3454 325.173 52.7686C324.8 53.1917 324.346 53.5239 323.808 53.7651C323.271 54.0063 322.663 54.127 321.986 54.127C321.305 54.127 320.696 54.0063 320.158 53.7651C319.625 53.5239 319.17 53.1917 318.793 52.7686C318.421 52.3454 318.135 51.8503 317.937 51.2832C317.742 50.7161 317.645 50.1047 317.645 49.4487C317.645 48.797 317.742 48.1877 317.937 47.6206C318.135 47.0493 318.421 46.5542 318.793 46.1353C319.17 45.7121 319.625 45.3799 320.158 45.1387C320.696 44.8932 321.305 44.7705 321.986 44.7705ZM321.986 52.4639C322.384 52.4639 322.733 52.3898 323.034 52.2417C323.338 52.0894 323.594 51.8799 323.802 51.6133C324.009 51.3467 324.166 51.0314 324.271 50.6675C324.377 50.3035 324.43 49.9058 324.43 49.4741V49.4233C324.43 48.9959 324.377 48.6003 324.271 48.2363C324.166 47.8682 324.009 47.5508 323.802 47.2842C323.594 47.0176 323.338 46.8102 323.034 46.6621C322.733 46.5098 322.384 46.4336 321.986 46.4336C321.589 46.4336 321.237 46.5098 320.933 46.6621C320.628 46.8102 320.372 47.0176 320.165 47.2842C319.961 47.5508 319.807 47.8682 319.701 48.2363C319.595 48.6003 319.542 48.9959 319.542 49.4233V49.4741C319.542 49.9058 319.595 50.3035 319.701 50.6675C319.807 51.0314 319.961 51.3467 320.165 51.6133C320.372 51.8799 320.628 52.0894 320.933 52.2417C321.237 52.3898 321.589 52.4639 321.986 52.4639ZM329.604 54L327.033 44.8975H329.096L330.854 51.7402H330.917L332.638 44.8975H334.675L332.104 54H329.604ZM343.765 52.4639C344.032 52.4639 344.279 52.4258 344.508 52.3496C344.741 52.2692 344.939 52.1507 345.104 51.9941C345.274 51.8333 345.407 51.6323 345.504 51.3911C345.602 51.1457 345.65 50.8579 345.65 50.5278V44.8848H347.466V50.8008C347.466 51.3086 347.373 51.7677 347.187 52.1782C347.005 52.5887 346.749 52.9378 346.418 53.2256C346.093 53.5133 345.703 53.7355 345.25 53.8921C344.798 54.0487 344.303 54.127 343.765 54.127C343.228 54.127 342.733 54.0487 342.28 53.8921C341.827 53.7355 341.436 53.5133 341.105 53.2256C340.775 52.9378 340.517 52.5887 340.331 52.1782C340.149 51.7677 340.058 51.3086 340.058 50.8008V44.8848H341.88V50.5278C341.88 50.8579 341.929 51.1457 342.026 51.3911C342.123 51.6323 342.254 51.8333 342.419 51.9941C342.589 52.1507 342.788 52.2692 343.016 52.3496C343.249 52.4258 343.499 52.4639 343.765 52.4639ZM349.269 44.8975H351.109V48.8394L354.359 44.8975H356.625L353.464 48.5156L356.829 54H354.689L352.284 49.9185L351.109 51.2324V54H349.269V44.8975Z" fill="white"/>
<ellipse cx="337.364" cy="50.5" rx="1.36364" ry="1.5" fill="#00FFE0"/>
<rect width="100" height="70" transform="translate(303 63)" fill="white"/>
<rect x="308" y="68" width="90" height="9" fill="#3A4756"/>
<path d="M312.057 82.5C314.025 82.5 315.613 84.0813 315.613 86.0225C315.613 87.9634 314.025 89.5439 312.057 89.5439C310.088 89.5439 308.5 87.9634 308.5 86.0225C308.5 84.0813 310.088 82.5001 312.057 82.5Z" fill="white" stroke="#3A4756"/>
<rect x="320.17" y="86.022" width="20.2837" height="0.804415" fill="#3A4756"/>
<path d="M312.057 92.9575C314.025 92.9575 315.613 94.5388 315.613 96.48C315.613 98.421 314.025 100.001 312.057 100.001C310.088 100.001 308.5 98.4209 308.5 96.48C308.5 94.5389 310.088 92.9576 312.057 92.9575Z" fill="white" stroke="#3A4756"/>
<rect x="320.17" y="96.4795" width="20.2837" height="0.804415" fill="#3A4756"/>
<path d="M312.057 103.415C314.025 103.415 315.613 104.996 315.613 106.937C315.613 108.878 314.025 110.459 312.057 110.459C310.088 110.459 308.5 108.878 308.5 106.937C308.5 104.996 310.088 103.415 312.057 103.415Z" fill="white" stroke="#3A4756"/>
<rect x="320.17" y="106.937" width="20.2837" height="0.804415" fill="#3A4756"/>
<path d="M312.057 113.456C314.025 113.456 315.613 115.037 315.613 116.978C315.613 118.919 314.025 120.5 312.057 120.5C310.088 120.5 308.5 118.919 308.5 116.978C308.5 115.037 310.088 113.456 312.057 113.456Z" fill="white" stroke="#3A4756"/>
<rect x="320.17" y="116.978" width="20.2837" height="0.804415" fill="#3A4756"/>
<g filter="url(#filter0_i_33839_260165)">
<rect x="308" y="126" width="14.8" height="5.69231" fill="#00823B"/>
</g>
<rect width="103" height="102" transform="translate(116 193)" fill="white"/>
<path d="M210 190.5C214.694 190.5 218.5 194.306 218.5 199V288C218.5 292.142 215.142 295.5 211 295.5H121C116.858 295.5 113.5 292.142 113.5 288V199C113.5 194.306 117.306 190.5 122 190.5H210Z" stroke="#008938" stroke-width="5"/>
<path d="M116 199C116 195.686 118.686 193 122 193H210C213.314 193 216 195.686 216 199V217H116V199Z" fill="#1D70B8"/>
<path d="M123.11 203.474C123.11 203.863 123.159 204.238 123.256 204.598C123.353 204.957 123.501 205.275 123.7 205.55C123.899 205.825 124.153 206.047 124.462 206.216C124.771 206.381 125.139 206.464 125.566 206.464C125.977 206.464 126.318 206.398 126.588 206.267C126.863 206.136 127.081 205.973 127.242 205.778C127.407 205.579 127.521 205.366 127.585 205.137C127.653 204.909 127.687 204.697 127.687 204.502V204.414H125.357V203.011H129.477V208H127.864V206.934C127.75 207.111 127.608 207.274 127.439 207.422C127.27 207.566 127.079 207.691 126.868 207.797C126.656 207.898 126.423 207.979 126.169 208.038C125.92 208.097 125.653 208.127 125.37 208.127C124.705 208.127 124.115 208.006 123.599 207.765C123.082 207.524 122.646 207.192 122.291 206.769C121.94 206.345 121.671 205.85 121.485 205.283C121.303 204.716 121.212 204.105 121.212 203.449C121.212 202.797 121.313 202.188 121.517 201.621C121.724 201.049 122.016 200.554 122.393 200.135C122.773 199.712 123.23 199.38 123.764 199.139C124.301 198.893 124.902 198.771 125.566 198.771C125.998 198.771 126.406 198.821 126.792 198.923C127.181 199.02 127.534 199.162 127.852 199.348C128.173 199.53 128.457 199.752 128.702 200.015C128.948 200.273 129.146 200.561 129.299 200.878L127.687 201.786C127.589 201.591 127.475 201.411 127.344 201.246C127.213 201.077 127.06 200.933 126.887 200.814C126.717 200.692 126.523 200.597 126.303 200.529C126.083 200.457 125.837 200.421 125.566 200.421C125.139 200.421 124.771 200.506 124.462 200.675C124.153 200.84 123.899 201.06 123.7 201.335C123.501 201.61 123.353 201.93 123.256 202.293C123.159 202.653 123.11 203.026 123.11 203.411V203.474ZM134.986 198.771C135.663 198.771 136.271 198.893 136.808 199.139C137.346 199.38 137.8 199.712 138.173 200.135C138.549 200.554 138.835 201.049 139.03 201.621C139.229 202.188 139.328 202.797 139.328 203.449C139.328 204.105 139.229 204.716 139.03 205.283C138.835 205.85 138.549 206.345 138.173 206.769C137.8 207.192 137.346 207.524 136.808 207.765C136.271 208.006 135.663 208.127 134.986 208.127C134.305 208.127 133.696 208.006 133.158 207.765C132.625 207.524 132.17 207.192 131.793 206.769C131.421 206.345 131.135 205.85 130.937 205.283C130.742 204.716 130.645 204.105 130.645 203.449C130.645 202.797 130.742 202.188 130.937 201.621C131.135 201.049 131.421 200.554 131.793 200.135C132.17 199.712 132.625 199.38 133.158 199.139C133.696 198.893 134.305 198.771 134.986 198.771ZM134.986 206.464C135.384 206.464 135.733 206.39 136.034 206.242C136.338 206.089 136.594 205.88 136.802 205.613C137.009 205.347 137.166 205.031 137.271 204.667C137.377 204.304 137.43 203.906 137.43 203.474V203.423C137.43 202.996 137.377 202.6 137.271 202.236C137.166 201.868 137.009 201.551 136.802 201.284C136.594 201.018 136.338 200.81 136.034 200.662C135.733 200.51 135.384 200.434 134.986 200.434C134.589 200.434 134.237 200.51 133.933 200.662C133.628 200.81 133.372 201.018 133.165 201.284C132.961 201.551 132.807 201.868 132.701 202.236C132.595 202.6 132.542 202.996 132.542 203.423V203.474C132.542 203.906 132.595 204.304 132.701 204.667C132.807 205.031 132.961 205.347 133.165 205.613C133.372 205.88 133.628 206.089 133.933 206.242C134.237 206.39 134.589 206.464 134.986 206.464ZM142.604 208L140.033 198.897H142.096L143.854 205.74H143.917L145.638 198.897H147.675L145.104 208H142.604ZM156.765 206.464C157.032 206.464 157.279 206.426 157.508 206.35C157.741 206.269 157.939 206.151 158.104 205.994C158.274 205.833 158.407 205.632 158.504 205.391C158.602 205.146 158.65 204.858 158.65 204.528V198.885H160.466V204.801C160.466 205.309 160.373 205.768 160.187 206.178C160.005 206.589 159.749 206.938 159.418 207.226C159.093 207.513 158.703 207.736 158.25 207.892C157.798 208.049 157.303 208.127 156.765 208.127C156.228 208.127 155.733 208.049 155.28 207.892C154.827 207.736 154.436 207.513 154.105 207.226C153.775 206.938 153.517 206.589 153.331 206.178C153.149 205.768 153.058 205.309 153.058 204.801V198.885H154.88V204.528C154.88 204.858 154.929 205.146 155.026 205.391C155.123 205.632 155.254 205.833 155.419 205.994C155.589 206.151 155.788 206.269 156.016 206.35C156.249 206.426 156.499 206.464 156.765 206.464ZM162.269 198.897H164.109V202.839L167.359 198.897H169.625L166.464 202.516L169.829 208H167.689L165.284 203.918L164.109 205.232V208H162.269V198.897Z" fill="white"/>
<ellipse cx="150.364" cy="204.5" rx="1.36364" ry="1.5" fill="#00FFE0"/>
<rect width="100" height="70" transform="translate(116 217)" fill="white"/>
<rect x="121" y="222" width="90" height="9" fill="#3A4756"/>
<rect x="121" y="236" width="22" height="1" fill="#0B0C0C"/>
<rect x="121" y="241" width="72" height="1" fill="#0B0C0C"/>
<rect x="121" y="251" width="72" height="1" fill="#0B0C0C"/>
<rect x="121" y="246" width="72" height="1" fill="#0B0C0C"/>
<rect x="121" y="256" width="40" height="1" fill="#0B0C0C"/>
<rect x="121" y="262" width="22" height="1" fill="#0B0C0C"/>
<rect x="121" y="267" width="72" height="1" fill="#0B0C0C"/>
<rect x="121" y="277" width="72" height="1" fill="#0B0C0C"/>
<rect x="121" y="272" width="72" height="1" fill="#0B0C0C"/>
<rect x="121" y="282" width="40" height="1" fill="#0B0C0C"/>
<defs>
<filter id="filter0_i_33839_260165" x="308" y="126" width="14.8008" height="5.69238" filterUnits="userSpaceOnUse" color-interpolation-filters="sRGB">
<feFlood flood-opacity="0" result="BackgroundImageFix"/>
<feBlend mode="normal" in="SourceGraphic" in2="BackgroundImageFix" result="shape"/>
<feColorMatrix in="SourceAlpha" type="matrix" values="0 0 0 0 0 0 0 0 0 0 0 0 0 0 0 0 0 0 127 0" result="hardAlpha"/>
<feOffset dy="-1"/>
<feComposite in2="hardAlpha" operator="arithmetic" k2="-1" k3="1"/>
<feColorMatrix type="matrix" values="0 0 0 0 0 0 0 0 0 0.392157 0 0 0 0 0.207843 0 0 0 1 0"/>
<feBlend mode="normal" in2="shape" result="effect1_innerShadow_33839_260165"/>
</filter>
</defs>
</svg>
