<svg width="139" height="139" viewBox="0 0 139 139" fill="none" xmlns="http://www.w3.org/2000/svg">
<path fill-rule="evenodd" clip-rule="evenodd" d="M106.181 76.1253C107.953 75.6054 109.744 75.1514 111.55 74.7643L112.76 74.5095C113.529 74.5095 114.265 74.2044 114.808 73.6613C115.351 73.1182 115.656 72.3816 115.656 71.6136C115.656 70.8456 115.351 70.109 114.808 69.566C114.265 69.0229 113.529 68.7178 112.76 68.7178C110.543 68.2729 108.344 67.7397 106.17 67.1193C89.9529 62.3991 81.4102 53.3235 76.7363 37.5065C76.5271 36.7951 76.3283 36.0807 76.1398 35.3636L75.6533 33.4465C75.404 32.41 75.1723 31.3692 74.9583 30.3248C74.8025 29.7147 74.4494 29.1732 73.9539 28.7846C73.4585 28.396 72.8485 28.1821 72.2188 28.1761C71.5833 28.1812 70.9677 28.3981 70.4694 28.7925C69.9711 29.187 69.6186 29.7364 69.4678 30.3538C68.9039 33.1872 68.1964 35.9901 67.348 38.7517L67.3365 38.7865C62.5178 54.1228 53.7376 62.5555 38.2565 67.0961C36.4847 67.6176 34.6938 68.0716 32.8876 68.4572L31.6714 68.7178C30.9034 68.7178 30.1668 69.0229 29.6237 69.566C29.0806 70.109 28.7755 70.8456 28.7755 71.6136C28.7755 72.3816 29.0806 73.1182 29.6237 73.6613C30.1668 74.2044 30.9034 74.5095 31.6714 74.5095C33.8925 74.9525 36.0951 75.4838 38.2739 76.1022C54.5427 80.8108 63.0506 89.7821 67.7071 105.669L68.1878 107.4L68.3037 107.846C68.4137 107.754 68.6512 109.769 68.767 109.682C68.9002 110.25 69.0334 110.829 69.1608 111.42L69.213 111.651L69.4215 112.659C69.5307 113.324 69.8714 113.928 70.3833 114.366C70.8952 114.804 71.5453 115.046 72.2188 115.051C72.865 115.045 73.4901 114.82 73.9919 114.413C74.4937 114.006 74.8425 113.441 74.9815 112.81C75.3144 111.141 75.693 109.482 76.1166 107.835C76.4172 106.682 76.7455 105.537 77.1012 104.4L77.1128 104.371C81.9315 89.0523 90.7 80.6602 106.181 76.1253ZM72.2188 93.1181C74.4196 88.4882 77.375 84.2566 80.9642 80.5965C84.6562 76.9031 88.9516 73.8672 93.6654 71.6194C88.8129 69.2986 84.409 66.1378 80.6573 62.2832C77.2148 58.6755 74.3718 54.5401 72.2362 50.0339C70.0347 54.6751 67.0774 58.9183 63.485 62.5902C59.7975 66.2883 55.5061 69.3301 50.7955 71.5847C55.6146 73.8745 59.9924 76.9957 63.7282 80.805C67.2079 84.4236 70.0756 88.5842 72.2188 93.1239V93.1181ZM97.0824 32.711C96.8484 32.711 96.6239 32.8036 96.4579 32.9685C96.2919 33.1334 96.1979 33.3573 96.1963 33.5913H96.2195C96.2195 34.0778 96.5786 34.4022 97.0593 34.4948L97.1925 34.5296L97.3778 34.5701L97.4242 34.5875C99.7239 35.1508 101.894 36.1495 103.818 37.5297C104.402 37.9624 104.951 38.4387 105.463 38.9544L105.48 38.966C107.44 41.0002 108.768 43.5593 109.303 46.333C109.334 46.4794 109.363 46.6261 109.39 46.7732C109.389 46.8895 109.411 47.0049 109.455 47.1127C109.499 47.2205 109.563 47.3186 109.645 47.4015C109.727 47.4843 109.824 47.5502 109.931 47.5954C110.039 47.6407 110.154 47.6643 110.27 47.6651V47.6419C110.757 47.6419 111.081 47.2828 111.174 46.8021L111.208 46.6689L111.255 46.4836C111.255 46.472 111.255 46.4546 111.266 46.4372C111.921 43.9352 112.911 41.7981 114.208 40.0432C114.919 39.0873 115.746 38.2235 116.67 37.4717C118.637 35.9059 120.975 34.8745 123.458 34.4775C123.573 34.4775 123.688 34.4544 123.794 34.4097C123.901 34.365 123.997 34.2994 124.078 34.2169C124.159 34.1344 124.223 34.0365 124.265 33.9291C124.308 33.8217 124.329 33.7069 124.326 33.5913C124.326 33.1048 123.962 32.7805 123.487 32.6878L123.348 32.6531L123.162 32.6125L123.116 32.5952C120.814 32.0312 118.641 31.0304 116.716 29.6472C116.135 29.2158 115.587 28.7415 115.077 28.2282L115.066 28.2167C114.744 27.8905 114.438 27.5484 114.15 27.1915C112.585 25.2245 111.553 22.8864 111.156 20.4037C111.156 20.1687 111.063 19.9433 110.897 19.7771C110.73 19.6109 110.505 19.5176 110.27 19.5176V19.5407C109.784 19.5407 109.459 19.8998 109.367 20.3747L109.332 20.5137L109.291 20.6991L109.274 20.7454C108.711 23.0453 107.712 25.2158 106.332 27.1394C105.899 27.7229 105.423 28.2728 104.907 28.7842L104.895 28.7958C104.569 29.1178 104.227 29.4233 103.87 29.7109C101.991 31.2038 99.7733 32.2104 97.4126 32.6415C97.3027 32.6637 97.1927 32.6907 97.0824 32.711ZM39.6639 113.864C41.1934 112.496 43.0477 111.543 45.0501 111.095C45.319 111.028 45.5893 110.966 45.861 110.91C46.1958 110.91 46.517 110.777 46.7537 110.54C46.9905 110.304 47.1235 109.982 47.1235 109.647C47.1235 109.313 46.9905 108.992 46.7537 108.755C46.517 108.518 46.1958 108.385 45.861 108.385C45.6828 108.333 45.5052 108.279 45.3281 108.223C43.0925 107.505 41.2392 106.618 39.7507 105.431C39.2842 105.062 38.8484 104.655 38.4476 104.215C37.1043 102.695 36.1678 100.86 35.7255 98.8808C35.6595 98.6119 35.5996 98.3416 35.546 98.07C35.546 97.7351 35.413 97.414 35.1762 97.1772C34.9394 96.9404 34.6183 96.8074 34.2834 96.8074C33.9486 96.8074 33.6274 96.9404 33.3906 97.1772C33.1539 97.414 33.0208 97.7351 33.0208 98.07C32.9664 98.2481 32.9104 98.4257 32.8529 98.6028C32.1405 100.838 31.2486 102.692 30.0671 104.18C29.696 104.645 29.2894 105.081 28.8508 105.483C27.4492 106.757 25.7118 107.661 23.5109 108.205C23.2421 108.272 22.9717 108.331 22.7001 108.385C22.3652 108.385 22.0441 108.518 21.8073 108.755C21.5705 108.992 21.4375 109.313 21.4375 109.647C21.4375 109.982 21.5705 110.304 21.8073 110.54C22.0441 110.777 22.3652 110.91 22.7001 110.91L23.2387 111.084C25.4685 111.79 27.3218 112.682 28.8103 113.864C29.2562 114.224 29.6762 114.615 30.0671 115.034L30.1134 115.086C31.3876 116.482 32.2911 118.219 32.8355 120.42C32.9035 120.689 32.9653 120.959 33.0208 121.231C33.0208 121.566 33.1539 121.887 33.3906 122.124C33.6274 122.36 33.9486 122.493 34.2834 122.493C34.6183 122.493 34.9394 122.36 35.1762 122.124C35.413 121.887 35.546 121.566 35.546 121.231L35.7082 120.692C36.4263 118.462 37.3125 116.609 38.4997 115.121C38.8545 114.672 39.2438 114.252 39.6639 113.864Z" fill="url(#paint0_linear_33193_36439)"/>
<path d="M55.6026 32.5083C45.8147 31.6569 40.4284 28.2283 37.5558 21.4288C36.5191 18.979 35.7951 16.1179 35.3318 12.7413C35.3318 12.1622 34.7526 11.583 34.1734 11.583C33.5943 11.583 33.0151 12.1622 33.0151 12.7413C32.5518 16.1179 31.8278 18.979 30.7911 21.4288C27.9242 28.2283 22.538 31.6569 12.7443 32.5083C12.1651 32.5083 11.5859 33.0875 11.5859 33.6666C11.5859 34.2458 12.1651 34.825 12.7443 34.825C24.9068 37.1416 31.2776 41.6997 33.0151 54.4413C33.0151 55.0205 33.5943 55.5997 34.1734 55.5997C34.7526 55.5997 35.3318 55.0205 35.3318 54.4413C37.0693 41.6997 43.4401 37.1416 55.6026 34.825C56.1818 34.825 56.7609 34.2458 56.7609 33.6666C56.7609 33.0875 56.1818 32.5083 55.6026 32.5083Z" fill="url(#paint1_linear_33193_36439)"/>
<defs>
<linearGradient id="paint0_linear_33193_36439" x1="-44.7844" y1="67.044" x2="66.1202" y2="179.767" gradientUnits="userSpaceOnUse">
<stop stop-color="#03A5AB"/>
<stop offset="1" stop-color="#8B3DFF"/>
</linearGradient>
<linearGradient id="paint1_linear_33193_36439" x1="-44.7844" y1="67.044" x2="66.1203" y2="179.767" gradientUnits="userSpaceOnUse">
<stop stop-color="#03A5AB"/>
<stop offset="1" stop-color="#8B3DFF"/>
</linearGradient>
</defs>
</svg>
