<svg width="477" height="144" viewBox="0 0 477 144" fill="none" xmlns="http://www.w3.org/2000/svg">
<g clip-path="url(#clip0_33793_60124)">
<rect width="98" height="102" transform="translate(7 8)" fill="white"/>
<path d="M99 5.5C103.694 5.5 107.5 9.30558 107.5 14V104C107.5 108.142 104.142 111.5 100 111.5H12C7.85786 111.5 4.5 108.142 4.5 104V14C4.5 9.30558 8.30558 5.5 13 5.5H99Z" stroke="#3A4756" stroke-width="5"/>
<path d="M7 14C7 10.6863 9.68629 8 13 8H99C102.314 8 105 10.6863 105 14V32H7V14Z" fill="#008938"/>
<path d="M12.8789 15.5977H18.5391V17.1387H14.5781V18.9258H18.2285V20.4609H14.5781V24H12.8789V15.5977ZM22.3594 17.6016C22.8242 17.6016 23.2461 17.6855 23.625 17.8535C24.0039 18.0176 24.3281 18.2461 24.5977 18.5391C24.8672 18.832 25.0742 19.1777 25.2188 19.5762C25.3672 19.9746 25.4414 20.4043 25.4414 20.8652C25.4414 21.3301 25.3672 21.7617 25.2188 22.1602C25.0703 22.5547 24.8613 22.8965 24.5918 23.1855C24.3223 23.4746 23.998 23.7031 23.6191 23.8711C23.2402 24.0352 22.8203 24.1172 22.3594 24.1172C21.8945 24.1172 21.4727 24.0352 21.0938 23.8711C20.7148 23.7031 20.3906 23.4746 20.1211 23.1855C19.8516 22.8965 19.6426 22.5547 19.4941 22.1602C19.3457 21.7617 19.2715 21.3301 19.2715 20.8652C19.2715 20.4043 19.3438 19.9746 19.4883 19.5762C19.6367 19.1777 19.8457 18.832 20.1152 18.5391C20.3848 18.2461 20.709 18.0176 21.0879 17.8535C21.4707 17.6855 21.8945 17.6016 22.3594 17.6016ZM22.3594 22.6172C22.5898 22.6172 22.793 22.5742 22.9688 22.4883C23.1484 22.4023 23.2988 22.2832 23.4199 22.1309C23.541 21.9785 23.6328 21.7969 23.6953 21.5859C23.7578 21.3711 23.7891 21.1367 23.7891 20.8828V20.8418C23.7891 20.5879 23.7578 20.3555 23.6953 20.1445C23.6328 19.9297 23.541 19.7461 23.4199 19.5938C23.2988 19.4375 23.1484 19.3164 22.9688 19.2305C22.793 19.1445 22.5898 19.1016 22.3594 19.1016C22.1289 19.1016 21.9238 19.1445 21.7441 19.2305C21.5684 19.3164 21.4199 19.4375 21.2988 19.5938C21.1777 19.7461 21.0859 19.9297 21.0234 20.1445C20.9609 20.3555 20.9297 20.5879 20.9297 20.8418V20.8828C20.9297 21.1367 20.9609 21.3711 21.0234 21.5859C21.0859 21.7969 21.1777 21.9785 21.2988 22.1309C21.4199 22.2832 21.5684 22.4023 21.7441 22.4883C21.9238 22.5742 22.1289 22.6172 22.3594 22.6172ZM30.041 19.2949H29.8711C29.6406 19.2949 29.4199 19.3184 29.209 19.3652C29.002 19.4121 28.8184 19.498 28.6582 19.623C28.498 19.7441 28.3691 19.9121 28.2715 20.127C28.1777 20.3418 28.1309 20.6172 28.1309 20.9531V24H26.5137V17.7246H28.1309V18.4336C28.1973 18.3281 28.2832 18.2266 28.3887 18.1289C28.4941 18.0312 28.6172 17.9453 28.7578 17.8711C28.8984 17.793 29.0566 17.7305 29.2324 17.6836C29.4082 17.6367 29.5977 17.6133 29.8008 17.6133H30.041V19.2949ZM36.3398 24H34.7168V20.3496C34.7168 20.127 34.6914 19.9395 34.6406 19.7871C34.5938 19.6309 34.5273 19.5059 34.4414 19.4121C34.3555 19.3145 34.2559 19.2461 34.1426 19.207C34.0293 19.1641 33.9062 19.1426 33.7734 19.1426C33.6172 19.1426 33.4707 19.1699 33.334 19.2246C33.2012 19.2793 33.084 19.3652 32.9824 19.4824C32.8848 19.5996 32.8066 19.75 32.748 19.9336C32.6934 20.1133 32.666 20.3281 32.666 20.5781V24H31.0488V17.7246H32.666V18.2754C32.873 18.0449 33.1133 17.875 33.3867 17.7656C33.6641 17.6562 33.9609 17.6016 34.2773 17.6016C34.6016 17.6016 34.9043 17.668 35.1855 17.8008C35.4707 17.9336 35.707 18.1523 35.8945 18.457C36.0039 18.3008 36.1289 18.168 36.2695 18.0586C36.4141 17.9492 36.5684 17.8613 36.7324 17.7949C36.8965 17.7285 37.0664 17.6797 37.2422 17.6484C37.4219 17.6172 37.6055 17.6016 37.793 17.6016C38.1445 17.6016 38.457 17.6602 38.7305 17.7773C39.0078 17.8906 39.2422 18.0449 39.4336 18.2402C39.625 18.4355 39.7715 18.6602 39.873 18.9141C39.9746 19.168 40.0254 19.4355 40.0254 19.7168V24H38.3906V20.3496C38.3906 20.127 38.3652 19.9395 38.3145 19.7871C38.2676 19.6309 38.2012 19.5059 38.1152 19.4121C38.0293 19.3145 37.9277 19.2461 37.8105 19.207C37.6973 19.1641 37.5742 19.1426 37.4414 19.1426C37.2852 19.1426 37.1406 19.1699 37.0078 19.2246C36.875 19.2793 36.7578 19.3652 36.6562 19.4824C36.5586 19.5996 36.4805 19.75 36.4219 19.9336C36.3672 20.1133 36.3398 20.3281 36.3398 20.5781V24ZM41.8184 21.9961C42.0488 22.2031 42.3242 22.3809 42.6445 22.5293C42.9648 22.6777 43.2891 22.752 43.6172 22.752C43.8555 22.752 44.043 22.707 44.1797 22.6172C44.3164 22.5234 44.3848 22.4043 44.3848 22.2598C44.3848 22.0137 44.1211 21.8223 43.5938 21.6855L43.1367 21.5625C42.9102 21.5078 42.6816 21.4336 42.4512 21.3398C42.2207 21.2422 42.0078 21.1152 41.8125 20.959C41.6211 20.8027 41.4648 20.6133 41.3438 20.3906C41.2266 20.1641 41.168 19.8867 41.168 19.5586C41.168 19.2969 41.2246 19.0488 41.3379 18.8145C41.4551 18.5762 41.6191 18.3672 41.8301 18.1875C42.0449 18.0078 42.3047 17.8652 42.6094 17.7598C42.9141 17.6543 43.2539 17.6016 43.6289 17.6016C44.1641 17.6016 44.6406 17.6855 45.0586 17.8535C45.4805 18.0215 45.8125 18.2109 46.0547 18.4219L45.2109 19.5C45.0117 19.3555 44.7754 19.2324 44.502 19.1309C44.2324 19.0254 43.9609 18.9727 43.6875 18.9727C43.4336 18.9727 43.2363 19.0195 43.0957 19.1133C42.9551 19.2031 42.8848 19.3125 42.8848 19.4414C42.8848 19.5781 42.9453 19.6895 43.0664 19.7754C43.1914 19.8574 43.3711 19.9297 43.6055 19.9922L44.2852 20.1855C44.9336 20.3691 45.3984 20.6172 45.6797 20.9297C45.9609 21.2422 46.1016 21.6367 46.1016 22.1133C46.1016 22.3789 46.0469 22.6328 45.9375 22.875C45.8281 23.1133 45.668 23.3262 45.457 23.5137C45.2461 23.7012 44.9844 23.8496 44.6719 23.959C44.3594 24.0645 44.0039 24.1172 43.6055 24.1172C43.3008 24.1172 43.0137 24.0898 42.7441 24.0352C42.4785 23.9805 42.2305 23.9062 42 23.8125C41.7734 23.7148 41.5684 23.6055 41.3848 23.4844C41.2012 23.3633 41.0449 23.2422 40.916 23.1211L41.8184 21.9961ZM56.6602 19.7988C56.6602 20.4277 56.5742 21.002 56.4023 21.5215C56.2344 22.0371 55.9805 22.4785 55.6406 22.8457C55.3047 23.2129 54.8828 23.498 54.375 23.7012C53.8672 23.9004 53.2734 24 52.5938 24H49.5V15.5977H52.5938C53.2734 15.5977 53.8672 15.6992 54.375 15.9023C54.8828 16.1016 55.3047 16.3848 55.6406 16.752C55.9805 17.1191 56.2344 17.5625 56.4023 18.082C56.5742 18.5977 56.6602 19.1699 56.6602 19.7988ZM54.8965 19.6348C54.8965 19.2793 54.8516 18.9492 54.7617 18.6445C54.6758 18.3359 54.5352 18.0684 54.3398 17.8418C54.1484 17.6152 53.8984 17.4375 53.5898 17.3086C53.2812 17.1758 52.9082 17.1094 52.4707 17.1094H51.1992V22.4883H52.4707C52.9043 22.4883 53.2754 22.4238 53.584 22.2949C53.8926 22.1621 54.1426 21.9824 54.334 21.7559C54.5293 21.5254 54.6719 21.2559 54.7617 20.9473C54.8516 20.6387 54.8965 20.3086 54.8965 19.957V19.6348ZM59.2031 21.4219C59.2305 21.6094 59.2891 21.7812 59.3789 21.9375C59.4727 22.0938 59.5898 22.2285 59.7305 22.3418C59.8711 22.4512 60.0332 22.5371 60.2168 22.5996C60.4004 22.6621 60.5957 22.6934 60.8027 22.6934C61.041 22.6934 61.2988 22.6484 61.5762 22.5586C61.8535 22.4648 62.1074 22.3301 62.3379 22.1543L63.1172 23.291C62.8242 23.5371 62.4648 23.7363 62.0391 23.8887C61.6133 24.041 61.1602 24.1172 60.6797 24.1172C60.2461 24.1172 59.8379 24.043 59.4551 23.8945C59.0723 23.7461 58.7363 23.5312 58.4473 23.25C58.1621 22.9688 57.9355 22.627 57.7676 22.2246C57.6035 21.8223 57.5215 21.3691 57.5215 20.8652C57.5215 20.4043 57.5938 19.9746 57.7383 19.5762C57.8867 19.1777 58.0918 18.832 58.3535 18.5391C58.6191 18.2461 58.9355 18.0176 59.3027 17.8535C59.6699 17.6855 60.0762 17.6016 60.5215 17.6016C60.9355 17.6016 61.3203 17.6777 61.6758 17.8301C62.0312 17.9785 62.3398 18.1895 62.6016 18.4629C62.8633 18.7324 63.0684 19.0566 63.2168 19.4355C63.3652 19.8145 63.4395 20.2324 63.4395 20.6895V21.4219H59.2031ZM60.5156 19.0078C60.168 19.0078 59.873 19.125 59.6309 19.3594C59.3926 19.5898 59.2539 19.8691 59.2148 20.1973H61.7461C61.7383 19.8652 61.6172 19.584 61.3828 19.3535C61.1484 19.123 60.8594 19.0078 60.5156 19.0078ZM64.916 21.9961C65.1465 22.2031 65.4219 22.3809 65.7422 22.5293C66.0625 22.6777 66.3867 22.752 66.7148 22.752C66.9531 22.752 67.1406 22.707 67.2773 22.6172C67.4141 22.5234 67.4824 22.4043 67.4824 22.2598C67.4824 22.0137 67.2188 21.8223 66.6914 21.6855L66.2344 21.5625C66.0078 21.5078 65.7793 21.4336 65.5488 21.3398C65.3184 21.2422 65.1055 21.1152 64.9102 20.959C64.7188 20.8027 64.5625 20.6133 64.4414 20.3906C64.3242 20.1641 64.2656 19.8867 64.2656 19.5586C64.2656 19.2969 64.3223 19.0488 64.4355 18.8145C64.5527 18.5762 64.7168 18.3672 64.9277 18.1875C65.1426 18.0078 65.4023 17.8652 65.707 17.7598C66.0117 17.6543 66.3516 17.6016 66.7266 17.6016C67.2617 17.6016 67.7383 17.6855 68.1562 17.8535C68.5781 18.0215 68.9102 18.2109 69.1523 18.4219L68.3086 19.5C68.1094 19.3555 67.873 19.2324 67.5996 19.1309C67.3301 19.0254 67.0586 18.9727 66.7852 18.9727C66.5312 18.9727 66.334 19.0195 66.1934 19.1133C66.0527 19.2031 65.9824 19.3125 65.9824 19.4414C65.9824 19.5781 66.043 19.6895 66.1641 19.7754C66.2891 19.8574 66.4688 19.9297 66.7031 19.9922L67.3828 20.1855C68.0312 20.3691 68.4961 20.6172 68.7773 20.9297C69.0586 21.2422 69.1992 21.6367 69.1992 22.1133C69.1992 22.3789 69.1445 22.6328 69.0352 22.875C68.9258 23.1133 68.7656 23.3262 68.5547 23.5137C68.3438 23.7012 68.082 23.8496 67.7695 23.959C67.457 24.0645 67.1016 24.1172 66.7031 24.1172C66.3984 24.1172 66.1113 24.0898 65.8418 24.0352C65.5762 23.9805 65.3281 23.9062 65.0977 23.8125C64.8711 23.7148 64.666 23.6055 64.4824 23.4844C64.2988 23.3633 64.1426 23.2422 64.0137 23.1211L64.916 21.9961ZM71.8652 24H70.248V17.7246H71.8652V24ZM70.0781 16.0781C70.0781 15.9453 70.1035 15.8203 70.1543 15.7031C70.2051 15.582 70.2734 15.4785 70.3594 15.3926C70.4492 15.3027 70.5527 15.2324 70.6699 15.1816C70.7871 15.1309 70.9141 15.1055 71.0508 15.1055C71.1836 15.1055 71.3086 15.1309 71.4258 15.1816C71.5469 15.2324 71.6504 15.3027 71.7363 15.3926C71.8262 15.4785 71.8965 15.582 71.9473 15.7031C71.998 15.8203 72.0234 15.9453 72.0234 16.0781C72.0234 16.2148 71.998 16.3418 71.9473 16.459C71.8965 16.5762 71.8262 16.6797 71.7363 16.7695C71.6504 16.8555 71.5469 16.9238 71.4258 16.9746C71.3086 17.0254 71.1836 17.0508 71.0508 17.0508C70.9141 17.0508 70.7871 17.0254 70.6699 16.9746C70.5527 16.9238 70.4492 16.8555 70.3594 16.7695C70.2734 16.6797 70.2051 16.5762 70.1543 16.459C70.1035 16.3418 70.0781 16.2148 70.0781 16.0781ZM77.0742 22.8867C76.9297 23.0625 76.7266 23.2031 76.4648 23.3086C76.207 23.4102 75.9258 23.4609 75.6211 23.4609C75.1992 23.4609 74.8242 23.3867 74.4961 23.2383C74.168 23.0898 73.8906 22.8867 73.6641 22.6289C73.4414 22.3672 73.2695 22.0586 73.1484 21.7031C73.0312 21.3477 72.9727 20.957 72.9727 20.5312C72.9727 20.1172 73.0312 19.7305 73.1484 19.3711C73.2695 19.0078 73.4414 18.6973 73.6641 18.4395C73.8906 18.1777 74.168 17.9727 74.4961 17.8242C74.8242 17.6758 75.1992 17.6016 75.6211 17.6016C75.9258 17.6016 76.207 17.6543 76.4648 17.7598C76.7266 17.8652 76.9297 18.0059 77.0742 18.1816V17.7246H78.6973V23.9414C78.6973 24.3242 78.625 24.6523 78.4805 24.9258C78.3359 25.2031 78.1367 25.4297 77.8828 25.6055C77.6328 25.7812 77.3418 25.9082 77.0098 25.9863C76.6777 26.0684 76.3242 26.1094 75.9492 26.1094C75.4922 26.1094 75.0156 26.0547 74.5195 25.9453C74.0234 25.8398 73.5957 25.707 73.2363 25.5469L73.6934 24.2402C73.8027 24.2871 73.9375 24.3379 74.0977 24.3926C74.2578 24.4512 74.4297 24.502 74.6133 24.5449C74.7969 24.5879 74.9883 24.623 75.1875 24.6504C75.3906 24.6816 75.5879 24.6973 75.7793 24.6973C75.9473 24.6973 76.1094 24.6797 76.2656 24.6445C76.4219 24.6133 76.5586 24.5586 76.6758 24.4805C76.7969 24.4062 76.8926 24.3066 76.9629 24.1816C77.0371 24.0605 77.0742 23.9043 77.0742 23.7129V22.8867ZM74.6367 20.5547C74.6367 20.7617 74.6582 20.957 74.7012 21.1406C74.748 21.3203 74.8203 21.4746 74.918 21.6035C75.0195 21.7285 75.1484 21.8281 75.3047 21.9023C75.4609 21.9727 75.6504 22.0078 75.873 22.0078C76.3145 22.0078 76.6289 21.8691 76.8164 21.5918C77.0039 21.3105 77.0977 20.9648 77.0977 20.5547V20.5078C77.0977 20.3008 77.0762 20.1074 77.0332 19.9277C76.9902 19.748 76.9199 19.5938 76.8223 19.4648C76.7246 19.3359 76.5977 19.2363 76.4414 19.166C76.2891 19.0918 76.0996 19.0547 75.873 19.0547C75.4355 19.0547 75.1191 19.1934 74.9238 19.4707C74.7324 19.748 74.6367 20.0938 74.6367 20.5078V20.5547ZM80.0918 17.7246H81.709V18.2637C81.7949 18.1777 81.8906 18.0957 81.9961 18.0176C82.1055 17.9355 82.2246 17.8652 82.3535 17.8066C82.4824 17.7441 82.625 17.6953 82.7812 17.6602C82.9414 17.6211 83.1172 17.6016 83.3086 17.6016C83.6484 17.6016 83.9531 17.6582 84.2227 17.7715C84.4922 17.8809 84.7188 18.0332 84.9023 18.2285C85.0898 18.4238 85.2324 18.6523 85.3301 18.9141C85.4277 19.1758 85.4766 19.459 85.4766 19.7637V24H83.8594V20.3496C83.8594 20.127 83.834 19.9395 83.7832 19.7871C83.7324 19.6309 83.6621 19.5059 83.5723 19.4121C83.4863 19.3145 83.3828 19.2441 83.2617 19.2012C83.1445 19.1543 83.0156 19.1309 82.875 19.1309C82.7109 19.1309 82.5566 19.1602 82.4121 19.2188C82.2715 19.2773 82.1484 19.3672 82.043 19.4883C81.9375 19.6055 81.8555 19.7539 81.7969 19.9336C81.7383 20.1133 81.709 20.3242 81.709 20.5664V24H80.0918V17.7246ZM88.1836 21.4219C88.2109 21.6094 88.2695 21.7812 88.3594 21.9375C88.4531 22.0938 88.5703 22.2285 88.7109 22.3418C88.8516 22.4512 89.0137 22.5371 89.1973 22.5996C89.3809 22.6621 89.5762 22.6934 89.7832 22.6934C90.0215 22.6934 90.2793 22.6484 90.5566 22.5586C90.834 22.4648 91.0879 22.3301 91.3184 22.1543L92.0977 23.291C91.8047 23.5371 91.4453 23.7363 91.0195 23.8887C90.5938 24.041 90.1406 24.1172 89.6602 24.1172C89.2266 24.1172 88.8184 24.043 88.4355 23.8945C88.0527 23.7461 87.7168 23.5312 87.4277 23.25C87.1426 22.9688 86.916 22.627 86.748 22.2246C86.584 21.8223 86.502 21.3691 86.502 20.8652C86.502 20.4043 86.5742 19.9746 86.7188 19.5762C86.8672 19.1777 87.0723 18.832 87.334 18.5391C87.5996 18.2461 87.916 18.0176 88.2832 17.8535C88.6504 17.6855 89.0566 17.6016 89.502 17.6016C89.916 17.6016 90.3008 17.6777 90.6562 17.8301C91.0117 17.9785 91.3203 18.1895 91.582 18.4629C91.8438 18.7324 92.0488 19.0566 92.1973 19.4355C92.3457 19.8145 92.4199 20.2324 92.4199 20.6895V21.4219H88.1836ZM89.4961 19.0078C89.1484 19.0078 88.8535 19.125 88.6113 19.3594C88.373 19.5898 88.2344 19.8691 88.1953 20.1973H90.7266C90.7188 19.8652 90.5977 19.584 90.3633 19.3535C90.1289 19.123 89.8398 19.0078 89.4961 19.0078ZM96.9785 19.2949H96.8086C96.5781 19.2949 96.3574 19.3184 96.1465 19.3652C95.9395 19.4121 95.7559 19.498 95.5957 19.623C95.4355 19.7441 95.3066 19.9121 95.209 20.127C95.1152 20.3418 95.0684 20.6172 95.0684 20.9531V24H93.4512V17.7246H95.0684V18.4336C95.1348 18.3281 95.2207 18.2266 95.3262 18.1289C95.4316 18.0312 95.5547 17.9453 95.6953 17.8711C95.8359 17.793 95.9941 17.7305 96.1699 17.6836C96.3457 17.6367 96.5352 17.6133 96.7383 17.6133H96.9785V19.2949Z" fill="white"/>
<rect width="98" height="70.4654" transform="translate(7 32)" fill="white"/>
<mask id="path-4-outside-1_33793_60124" maskUnits="userSpaceOnUse" x="12" y="36" width="53" height="15" fill="black">
<rect fill="white" x="12" y="36" width="53" height="15"/>
<path d="M12 37H64V50.3023H12V37Z"/>
</mask>
<path d="M12 37H64V50.3023H12V37Z" fill="#F7F7F7"/>
<path d="M64 37H64.2L64 36.8V37ZM64 50.3023V50.5023L64.2 50.3023H64ZM12 37V37.2H64V37V36.8H12V37ZM64 37H63.8V50.3023H64H64.2V37H64ZM64 50.3023V50.1023H12V50.3023V50.5023H64V50.3023Z" fill="#B1B4B6" mask="url(#path-4-outside-1_33793_60124)"/>
<mask id="path-6-inside-2_33793_60124" fill="white">
<path d="M12 37H64V50.3023H12V37Z"/>
</mask>
<path d="M12 37H64V50.3023H12V37Z" fill="#F7F7F7"/>
<path d="M12 50.3023H13V37H12H11V50.3023H12Z" fill="#008938" mask="url(#path-6-inside-2_33793_60124)"/>
<mask id="path-8-outside-3_33793_60124" maskUnits="userSpaceOnUse" x="12" y="51.7207" width="53" height="15" fill="black">
<rect fill="white" x="12" y="51.7207" width="53" height="15"/>
<path d="M12 52.7207H64V66.023H12V52.7207Z"/>
</mask>
<path d="M12 52.7207H64V66.023H12V52.7207Z" fill="#F7F7F7"/>
<path d="M64 52.7207H64.2L64 52.5207V52.7207ZM64 66.023V66.223L64.2 66.023H64ZM12 52.7207V52.9207H64V52.7207V52.5207H12V52.7207ZM64 52.7207H63.8V66.023H64H64.2V52.7207H64ZM64 66.023V65.823H12V66.023V66.223H64V66.023Z" fill="#B1B4B6" mask="url(#path-8-outside-3_33793_60124)"/>
<mask id="path-10-inside-4_33793_60124" fill="white">
<path d="M12 52.7207H64V66.023H12V52.7207Z"/>
</mask>
<path d="M12 52.7207H64V66.023H12V52.7207Z" fill="#F7F7F7"/>
<path d="M12 66.023H13V52.7207H12H11V66.023H12Z" fill="#008938" mask="url(#path-10-inside-4_33793_60124)"/>
<mask id="path-12-outside-5_33793_60124" maskUnits="userSpaceOnUse" x="12" y="67.4419" width="53" height="15" fill="black">
<rect fill="white" x="12" y="67.4419" width="53" height="15"/>
<path d="M12 68.4419H64V81.7442H12V68.4419Z"/>
</mask>
<path d="M12 68.4419H64V81.7442H12V68.4419Z" fill="#F7F7F7"/>
<path d="M64 68.4419H64.2L64 68.2419V68.4419ZM64 81.7442V81.9442L64.2 81.7442H64ZM12 68.4419V68.6419H64V68.4419V68.2419H12V68.4419ZM64 68.4419H63.8V81.7442H64H64.2V68.4419H64ZM64 81.7442V81.5442H12V81.7442V81.9442H64V81.7442Z" fill="#B1B4B6" mask="url(#path-12-outside-5_33793_60124)"/>
<mask id="path-14-inside-6_33793_60124" fill="white">
<path d="M12 68.4419H64V81.7442H12V68.4419Z"/>
</mask>
<path d="M12 68.4419H64V81.7442H12V68.4419Z" fill="#F7F7F7"/>
<path d="M12 81.7442H13V68.4419H12H11V81.7442H12Z" fill="#008938" mask="url(#path-14-inside-6_33793_60124)"/>
<mask id="path-16-outside-7_33793_60124" maskUnits="userSpaceOnUse" x="12" y="83.1631" width="53" height="15" fill="black">
<rect fill="white" x="12" y="83.1631" width="53" height="15"/>
<path d="M12 84.1631H64V97.4654H12V84.1631Z"/>
</mask>
<path d="M12 84.1631H64V97.4654H12V84.1631Z" fill="#F7F7F7"/>
<path d="M64 84.1631H64.2L64 83.9631V84.1631ZM64 97.4654V97.6654L64.2 97.4654H64ZM12 84.1631V84.3631H64V84.1631V83.9631H12V84.1631ZM64 84.1631H63.8V97.4654H64H64.2V84.1631H64ZM64 97.4654V97.2654H12V97.4654V97.6654H64V97.4654Z" fill="#B1B4B6" mask="url(#path-16-outside-7_33793_60124)"/>
<mask id="path-18-inside-8_33793_60124" fill="white">
<path d="M12 84.1631H64V97.4654H12V84.1631Z"/>
</mask>
<path d="M12 84.1631H64V97.4654H12V84.1631Z" fill="#F7F7F7"/>
<path d="M12 97.4654H13V84.1631H12H11V97.4654H12Z" fill="#008938" mask="url(#path-18-inside-8_33793_60124)"/>
<path d="M180.9 73H111" stroke="#3A4756" stroke-width="7.65554" stroke-linecap="square"/>
<rect width="103" height="102" transform="translate(187 8)" fill="white"/>
<path d="M281 5.5C285.694 5.5 289.5 9.30558 289.5 14V103C289.5 107.142 286.142 110.5 282 110.5H192C187.858 110.5 184.5 107.142 184.5 103V14C184.5 9.30558 188.306 5.5 193 5.5H281Z" stroke="#3A4756" stroke-width="5"/>
<path d="M187 14C187 10.6863 189.686 8 193 8H281C284.314 8 287 10.6863 287 14V32H187V14Z" fill="#1D70B8"/>
<path d="M194.11 18.4741C194.11 18.8634 194.159 19.238 194.256 19.5977C194.353 19.9574 194.501 20.2747 194.7 20.5498C194.899 20.8249 195.153 21.047 195.462 21.2163C195.771 21.3813 196.139 21.4639 196.566 21.4639C196.977 21.4639 197.318 21.3983 197.588 21.2671C197.863 21.1359 198.081 20.973 198.242 20.7783C198.407 20.5794 198.521 20.3657 198.585 20.1372C198.653 19.9087 198.687 19.6971 198.687 19.5024V19.4136H196.357V18.0107H200.477V23H198.864V21.9336C198.75 22.1113 198.608 22.2743 198.439 22.4224C198.27 22.5662 198.079 22.6911 197.868 22.7969C197.656 22.8984 197.423 22.9788 197.169 23.0381C196.92 23.0973 196.653 23.127 196.37 23.127C195.705 23.127 195.115 23.0063 194.599 22.7651C194.082 22.5239 193.646 22.1917 193.291 21.7686C192.94 21.3454 192.671 20.8503 192.485 20.2832C192.303 19.7161 192.212 19.1047 192.212 18.4487C192.212 17.797 192.313 17.1877 192.517 16.6206C192.724 16.0493 193.016 15.5542 193.393 15.1353C193.773 14.7121 194.23 14.3799 194.764 14.1387C195.301 13.8932 195.902 13.7705 196.566 13.7705C196.998 13.7705 197.406 13.8213 197.792 13.9229C198.181 14.0202 198.534 14.1619 198.852 14.3481C199.173 14.5301 199.457 14.7523 199.702 15.0146C199.948 15.2728 200.146 15.5605 200.299 15.8779L198.687 16.7856C198.589 16.591 198.475 16.4111 198.344 16.2461C198.213 16.0768 198.06 15.9329 197.887 15.8145C197.717 15.6917 197.523 15.5965 197.303 15.5288C197.083 15.4569 196.837 15.4209 196.566 15.4209C196.139 15.4209 195.771 15.5055 195.462 15.6748C195.153 15.8398 194.899 16.0599 194.7 16.335C194.501 16.61 194.353 16.9295 194.256 17.2935C194.159 17.6532 194.11 18.0256 194.11 18.4106V18.4741ZM205.986 13.7705C206.663 13.7705 207.271 13.8932 207.808 14.1387C208.346 14.3799 208.8 14.7121 209.173 15.1353C209.549 15.5542 209.835 16.0493 210.03 16.6206C210.229 17.1877 210.328 17.797 210.328 18.4487C210.328 19.1047 210.229 19.7161 210.03 20.2832C209.835 20.8503 209.549 21.3454 209.173 21.7686C208.8 22.1917 208.346 22.5239 207.808 22.7651C207.271 23.0063 206.663 23.127 205.986 23.127C205.305 23.127 204.696 23.0063 204.158 22.7651C203.625 22.5239 203.17 22.1917 202.793 21.7686C202.421 21.3454 202.135 20.8503 201.937 20.2832C201.742 19.7161 201.645 19.1047 201.645 18.4487C201.645 17.797 201.742 17.1877 201.937 16.6206C202.135 16.0493 202.421 15.5542 202.793 15.1353C203.17 14.7121 203.625 14.3799 204.158 14.1387C204.696 13.8932 205.305 13.7705 205.986 13.7705ZM205.986 21.4639C206.384 21.4639 206.733 21.3898 207.034 21.2417C207.338 21.0894 207.594 20.8799 207.802 20.6133C208.009 20.3467 208.166 20.0314 208.271 19.6675C208.377 19.3035 208.43 18.9058 208.43 18.4741V18.4233C208.43 17.9959 208.377 17.6003 208.271 17.2363C208.166 16.8682 208.009 16.5508 207.802 16.2842C207.594 16.0176 207.338 15.8102 207.034 15.6621C206.733 15.5098 206.384 15.4336 205.986 15.4336C205.589 15.4336 205.237 15.5098 204.933 15.6621C204.628 15.8102 204.372 16.0176 204.165 16.2842C203.961 16.5508 203.807 16.8682 203.701 17.2363C203.595 17.6003 203.542 17.9959 203.542 18.4233V18.4741C203.542 18.9058 203.595 19.3035 203.701 19.6675C203.807 20.0314 203.961 20.3467 204.165 20.6133C204.372 20.8799 204.628 21.0894 204.933 21.2417C205.237 21.3898 205.589 21.4639 205.986 21.4639ZM213.604 23L211.033 13.8975H213.096L214.854 20.7402H214.917L216.638 13.8975H218.675L216.104 23H213.604ZM227.765 21.4639C228.032 21.4639 228.279 21.4258 228.508 21.3496C228.741 21.2692 228.939 21.1507 229.104 20.9941C229.274 20.8333 229.407 20.6323 229.504 20.3911C229.602 20.1457 229.65 19.8579 229.65 19.5278V13.8848H231.466V19.8008C231.466 20.3086 231.373 20.7677 231.187 21.1782C231.005 21.5887 230.749 21.9378 230.418 22.2256C230.093 22.5133 229.703 22.7355 229.25 22.8921C228.798 23.0487 228.303 23.127 227.765 23.127C227.228 23.127 226.733 23.0487 226.28 22.8921C225.827 22.7355 225.436 22.5133 225.105 22.2256C224.775 21.9378 224.517 21.5887 224.331 21.1782C224.149 20.7677 224.058 20.3086 224.058 19.8008V13.8848H225.88V19.5278C225.88 19.8579 225.929 20.1457 226.026 20.3911C226.123 20.6323 226.254 20.8333 226.419 20.9941C226.589 21.1507 226.788 21.2692 227.016 21.3496C227.249 21.4258 227.499 21.4639 227.765 21.4639ZM233.269 13.8975H235.109V17.8394L238.359 13.8975H240.625L237.464 17.5156L240.829 23H238.689L236.284 18.9185L235.109 20.2324V23H233.269V13.8975Z" fill="white"/>
<ellipse cx="221.364" cy="19.5" rx="1.36364" ry="1.5" fill="#00FFE0"/>
<rect width="100" height="70" transform="translate(187 32)" fill="white"/>
<rect x="192" y="37" width="90" height="9" fill="#3A4756"/>
<path d="M196.057 51.5C198.025 51.5 199.613 53.0813 199.613 55.0225C199.613 56.9634 198.025 58.5439 196.057 58.5439C194.088 58.5439 192.5 56.9634 192.5 55.0225C192.5 53.0813 194.088 51.5001 196.057 51.5Z" fill="white" stroke="#3A4756"/>
<rect x="204.17" y="55.022" width="20.2837" height="0.804415" fill="#3A4756"/>
<path d="M196.057 61.9575C198.025 61.9575 199.613 63.5388 199.613 65.48C199.613 67.421 198.025 69.0015 196.057 69.0015C194.088 69.0014 192.5 67.4209 192.5 65.48C192.5 63.5389 194.088 61.9576 196.057 61.9575Z" fill="white" stroke="#3A4756"/>
<rect x="204.17" y="65.4795" width="20.2837" height="0.804415" fill="#3A4756"/>
<path d="M196.057 72.415C198.025 72.415 199.613 73.9963 199.613 75.9375C199.613 77.8785 198.025 79.459 196.057 79.459C194.088 79.4589 192.5 77.8784 192.5 75.9375C192.5 73.9964 194.088 72.4151 196.057 72.415Z" fill="white" stroke="#3A4756"/>
<rect x="204.17" y="75.937" width="20.2837" height="0.804415" fill="#3A4756"/>
<path d="M196.057 82.4561C198.025 82.4561 199.613 84.0374 199.613 85.9785C199.613 87.9195 198.025 89.5 196.057 89.5C194.088 89.4999 192.5 87.9195 192.5 85.9785C192.5 84.0374 194.088 82.4561 196.057 82.4561Z" fill="white" stroke="#3A4756"/>
<rect x="204.17" y="85.978" width="20.2837" height="0.804415" fill="#3A4756"/>
<g filter="url(#filter0_i_33793_60124)">
<rect x="192" y="95" width="14.8" height="5.69231" fill="#00823B"/>
</g>
<path d="M458.915 14H369.085C367.381 14 366 15.4283 366 17.1902V105.81C366 107.572 367.381 109 369.085 109H458.915C460.619 109 462 107.572 462 105.81V17.1902C462 15.4283 460.619 14 458.915 14Z" fill="#D7DAE1" stroke="#3A4756" stroke-width="4.56504" stroke-linecap="round" stroke-linejoin="round"/>
<path d="M389.577 32.3442H377.008V41.5572H389.577V32.3442Z" fill="white"/>
<path d="M414.198 32.1543H401.629V41.3673H414.198V32.1543Z" fill="#008938"/>
<path d="M460 42H451V51H460V42Z" fill="#008938"/>
<path d="M439.012 41.647H426.443V50.86H439.012V41.647Z" fill="white"/>
<path d="M450.942 32.7241H438.373V41.9371H450.942V32.7241Z" fill="#008938"/>
<path d="M426.223 78.9824H413.654V88.1954H426.223V78.9824Z" fill="white"/>
<path d="M425.83 98.146H414.309V106.591H425.83V98.146Z" fill="white"/>
<path d="M460 98H451V107H460V98Z" fill="white"/>
<path d="M401.626 69.6885H389.057V78.9015H401.626V69.6885Z" fill="white"/>
<path d="M377 42H368V51H377V42Z" fill="white"/>
<path d="M450.837 51.3428H438.268V60.5558H450.837V51.3428Z" fill="white"/>
<path d="M450.968 78.8047H438.398V88.0177H450.968V78.8047Z" fill="white"/>
<path d="M401.741 88.1948H389.172V97.4078H401.741V88.1948Z" fill="white"/>
<path d="M413.786 50.811H401.217V60.024H413.786V50.811Z" fill="white"/>
<path d="M389.563 60.3789H376.994V69.5919H389.563V60.3789Z" fill="white"/>
<path d="M438.659 69.5635H426.09V78.7765H438.659V69.5635Z" fill="white"/>
<path d="M439 97H426V107H439V97Z" fill="#008938"/>
<path d="M389 97H377V107H389V97Z" fill="#008938"/>
<path d="M377.29 22.9946H366.879V32.2076H377.29V22.9946Z" fill="#008938"/>
<path d="M450.027 41.561H438.568V50.774H450.027V41.561Z" fill="#008938"/>
<path d="M401.741 41.5986H389.172V50.8116H401.741V41.5986Z" fill="#008938"/>
<path d="M426.485 60.0244H413.916V69.2374H426.485V60.0244Z" fill="#008938"/>
<path d="M413.786 79.1587H401.217V88.3717H413.786V79.1587Z" fill="#008938"/>
<path d="M377 79H368V88H377V79Z" fill="#008938"/>
<path d="M377 51H368V60H377V51Z" fill="#008938"/>
<path d="M450.837 88.3721H438.268V97.5851H450.837V88.3721Z" fill="#008938"/>
<path d="M459.875 60.1406H450.875V69.1406H459.875V60.1406Z" fill="#008938"/>
<path d="M377.125 26.8931L377 107" stroke="#3A4756" stroke-width="2.28252"/>
<path d="M389.389 26.8931V107.5" stroke="#3A4756" stroke-width="2.28252"/>
<path d="M401.652 26.8931V106.306" stroke="#3A4756" stroke-width="2.28252"/>
<path d="M413.916 26.8931V106.306" stroke="#3A4756" stroke-width="2.28252"/>
<path d="M426.18 26.8931V106.306" stroke="#3A4756" stroke-width="2.28252"/>
<path d="M438.443 26.8931L439 107.999" stroke="#3A4756" stroke-width="2.28252"/>
<path d="M451 27L451 108" stroke="#3A4756" stroke-width="2.28252"/>
<path d="M366.221 32.3853H461.043" stroke="#3A4756" stroke-width="2.28252" stroke-linecap="square"/>
<path d="M366.221 41.7246H461.043" stroke="#3A4756" stroke-width="2.28252" stroke-linecap="square"/>
<path d="M366.221 51.0645H461.043" stroke="#3A4756" stroke-width="2.28252" stroke-linecap="square"/>
<path d="M366.221 60.4043H461.043" stroke="#3A4756" stroke-width="2.28252" stroke-linecap="square"/>
<path d="M366.221 69.7432H461.043" stroke="#3A4756" stroke-width="2.28252" stroke-linecap="square"/>
<path d="M366.221 79.083H461.043" stroke="#3A4756" stroke-width="2.28252" stroke-linecap="square"/>
<path d="M366.221 88.4229H461.043" stroke="#3A4756" stroke-width="2.28252" stroke-linecap="square"/>
<path d="M366.221 97.7622H461.043" stroke="#3A4756" stroke-width="2.28252" stroke-linecap="square"/>
<path d="M467.225 6H361.097C359.387 6 358 7.38926 358 9.10299V29.3028C358 31.0165 359.387 32.4058 361.097 32.4058H467.225C468.936 32.4058 470.322 31.0165 470.322 29.3028V9.10299C470.322 7.38926 468.936 6 467.225 6Z" fill="white" stroke="#3A4756" stroke-width="4.56504"/>
<path d="M399.658 17.0034H385.461V21.403H399.658V17.0034Z" fill="#3A4756"/>
<path d="M358 24.4507V29.5363C358 31.1264 359.278 32.4065 360.865 32.4065H467.457C469.044 32.4065 470.322 31.1264 470.322 29.5363V24.4507H358Z" fill="#ECEFF4"/>
<rect x="363.477" y="10.7305" width="15.7169" height="16.3789" rx="7.85843" fill="#008938"/>
<rect x="363.477" y="10.7305" width="15.7169" height="16.3789" rx="7.85843" stroke="#3A4756" stroke-width="3"/>
<path d="M375.977 16.025C375.936 15.8167 375.846 15.6261 375.719 15.4687C375.692 15.4344 375.664 15.4036 375.634 15.3729C375.41 15.1433 375.095 15 374.752 15H368.248C367.905 15 367.591 15.1433 367.366 15.3729C367.336 15.4036 367.308 15.4344 367.281 15.4687C367.154 15.6261 367.064 15.8167 367.024 16.025C367.008 16.1054 367 16.1885 367 16.2725V20.9276C367 21.1062 367.037 21.2779 367.103 21.4329C367.165 21.5809 367.256 21.7148 367.366 21.8271C367.394 21.8555 367.422 21.8816 367.452 21.9076C367.668 22.0899 367.947 22.2 368.248 22.2H374.752C375.054 22.2 375.334 22.0899 375.548 21.9065C375.578 21.8816 375.606 21.8555 375.634 21.8271C375.744 21.7148 375.835 21.5809 375.898 21.4329V21.4318C375.964 21.2768 376 21.1062 376 20.9277V16.2725C376 16.1885 375.992 16.1054 375.977 16.025ZM367.818 15.8333C367.929 15.7197 368.079 15.651 368.248 15.651H374.752C374.921 15.651 375.072 15.7197 375.182 15.8333C375.202 15.8535 375.221 15.876 375.237 15.8984L371.829 18.9261C371.735 19.0101 371.619 19.0516 371.5 19.0516C371.383 19.0516 371.267 19.0101 371.171 18.9261L367.764 15.8971C367.779 15.8747 367.798 15.8535 367.818 15.8333ZM367.639 20.9276V16.5707L370.105 18.7639L367.64 20.9548C367.639 20.9465 367.639 20.9371 367.639 20.9276ZM374.752 21.5489H368.248C368.138 21.5489 368.035 21.5193 367.947 21.4674L370.548 19.1569L370.791 19.3723C370.994 19.5522 371.248 19.6434 371.5 19.6434C371.753 19.6434 372.008 19.5522 372.211 19.3723L372.453 19.1569L375.054 21.4674C374.965 21.5193 374.862 21.5489 374.752 21.5489ZM375.361 20.9276C375.361 20.9371 375.361 20.9465 375.36 20.9548L372.895 18.7652L375.361 16.5719V20.9276Z" fill="white"/>
<path d="M407.042 17.0034H402.396V21.403H407.042V17.0034Z" fill="#00A33B"/>
<path d="M414.422 17.0034H409.777V21.403H414.422V17.0034Z" fill="#00A33B"/>
<path d="M467.225 6H361.097C359.387 6 358 7.38926 358 9.10299V29.3028C358 31.0165 359.387 32.4058 361.097 32.4058H467.225C468.936 32.4058 470.322 31.0165 470.322 29.3028V9.10299C470.322 7.38926 468.936 6 467.225 6Z" stroke="#3A4756" stroke-width="4.565"/>
<path d="M365 32V107.396C365 109.92 366.948 112 369.332 112H459.668C462.052 112 464 109.92 464 107.396V32H461.519V107.396C461.519 108.51 460.72 109.374 459.668 109.374H369.332C368.28 109.374 367.481 108.51 367.481 107.396V32H365Z" fill="#3A4756"/>
<path d="M259.597 116.299C259.597 128.062 250.062 137.597 238.299 137.597C226.536 137.597 217 128.062 217 116.299C217 104.536 226.536 95 238.299 95C250.062 95 259.597 104.536 259.597 116.299Z" fill="#008938" stroke="#3A4756" stroke-width="6"/>
<path d="M249.69 106.663L248.959 107.393L234.883 121.549L227.638 114.257L226.923 113.526L226.192 114.257L223.92 116.545L223.205 117.26L223.92 117.975L234.168 128.286L234.883 129.001L235.597 128.286L252.677 111.111L253.392 110.396L252.677 109.681L250.405 107.393L249.69 106.663Z" fill="white"/>
<path d="M435.597 116.299C435.597 128.062 426.062 137.597 414.299 137.597C402.536 137.597 393 128.062 393 116.299C393 104.536 402.536 95 414.299 95C426.062 95 435.597 104.536 435.597 116.299Z" fill="#008938" stroke="#3A4756" stroke-width="6"/>
<path d="M425.69 106.663L424.959 107.394L410.883 121.55L403.638 114.257L402.923 113.527L402.192 114.257L399.92 116.545L399.205 117.26L399.92 117.975L410.168 128.286L410.883 129.001L411.597 128.286L428.677 111.112L429.392 110.397L428.677 109.682L426.405 107.394L425.69 106.663Z" fill="white"/>
<path d="M305.869 70H292" stroke="#3A4756" stroke-width="7.65554" stroke-linecap="square"/>
<path d="M361.869 70H348" stroke="#3A4756" stroke-width="7.65554" stroke-linecap="square"/>
<rect x="312" y="53" width="31" height="31" rx="15.5" fill="#008938"/>
<rect x="312" y="53" width="31" height="31" rx="15.5" stroke="#3A4756" stroke-width="6"/>
<path d="M323.463 66.7762H321.157C320.573 66.7762 320.1 67.2475 320.1 67.8313C320.1 69.573 320.1 73.0921 320.1 75.4619C320.1 78.1183 324.208 78.7191 327.5 78.7191C330.791 78.7191 334.9 78.1183 334.9 75.4619C334.9 73.0922 334.9 69.573 334.9 67.8313C334.9 67.2475 334.426 66.7762 333.842 66.7762H331.536M323.463 66.7762C323.463 66.7762 323.463 64.0619 323.463 62.4333C323.463 60.4788 325.078 58.6333 327.5 58.6333C329.922 58.6333 331.536 60.4788 331.536 62.4333C331.536 64.0619 331.536 66.7762 331.536 66.7762M323.463 66.7762H331.536" stroke="white" stroke-width="2" stroke-linecap="round" stroke-linejoin="round"/>
<path fill-rule="evenodd" clip-rule="evenodd" d="M328.557 73.0299V74.4908C328.557 75.0747 328.084 75.5479 327.5 75.5479C326.916 75.5479 326.443 75.0747 326.443 74.4908V73.0299C326.118 72.7395 325.914 72.3175 325.914 71.8479C325.914 70.9722 326.624 70.2622 327.5 70.2622C328.376 70.2622 329.086 70.9722 329.086 71.8479C329.086 72.3175 328.881 72.7395 328.557 73.0299Z" fill="white"/>
</g>
<defs>
<filter id="filter0_i_33793_60124" x="192" y="95" width="14.8008" height="5.69238" filterUnits="userSpaceOnUse" color-interpolation-filters="sRGB">
<feFlood flood-opacity="0" result="BackgroundImageFix"/>
<feBlend mode="normal" in="SourceGraphic" in2="BackgroundImageFix" result="shape"/>
<feColorMatrix in="SourceAlpha" type="matrix" values="0 0 0 0 0 0 0 0 0 0 0 0 0 0 0 0 0 0 127 0" result="hardAlpha"/>
<feOffset dy="-1"/>
<feComposite in2="hardAlpha" operator="arithmetic" k2="-1" k3="1"/>
<feColorMatrix type="matrix" values="0 0 0 0 0 0 0 0 0 0.392157 0 0 0 0 0.207843 0 0 0 1 0"/>
<feBlend mode="normal" in2="shape" result="effect1_innerShadow_33793_60124"/>
</filter>
<clipPath id="clip0_33793_60124">
<rect width="477" height="144" fill="white"/>
</clipPath>
</defs>
</svg>
