<svg width="346" height="274" viewBox="0 0 346 274" fill="none" xmlns="http://www.w3.org/2000/svg">
<g clip-path="url(#clip0_33514_58936)">
<rect width="103" height="102" transform="translate(124 98)" fill="white"/>
<path d="M218 95.5C222.694 95.5 226.5 99.3056 226.5 104V193C226.5 197.142 223.142 200.5 219 200.5H129C124.858 200.5 121.5 197.142 121.5 193V104C121.5 99.3056 125.306 95.5 130 95.5H218Z" stroke="#3A4756" stroke-width="5"/>
<path d="M124 104C124 100.686 126.686 98 130 98H218C221.314 98 224 100.686 224 104V122H124V104Z" fill="#1D70B8"/>
<path d="M131.11 108.474C131.11 108.863 131.159 109.238 131.256 109.598C131.353 109.957 131.501 110.275 131.7 110.55C131.899 110.825 132.153 111.047 132.462 111.216C132.771 111.381 133.139 111.464 133.566 111.464C133.977 111.464 134.318 111.398 134.588 111.267C134.863 111.136 135.081 110.973 135.242 110.778C135.407 110.579 135.521 110.366 135.585 110.137C135.653 109.909 135.687 109.697 135.687 109.502V109.414H133.357V108.011H137.477V113H135.864V111.934C135.75 112.111 135.608 112.274 135.439 112.422C135.27 112.566 135.079 112.691 134.868 112.797C134.656 112.898 134.423 112.979 134.169 113.038C133.92 113.097 133.653 113.127 133.37 113.127C132.705 113.127 132.115 113.006 131.599 112.765C131.082 112.524 130.646 112.192 130.291 111.769C129.94 111.345 129.671 110.85 129.485 110.283C129.303 109.716 129.212 109.105 129.212 108.449C129.212 107.797 129.313 107.188 129.517 106.621C129.724 106.049 130.016 105.554 130.393 105.135C130.773 104.712 131.23 104.38 131.764 104.139C132.301 103.893 132.902 103.771 133.566 103.771C133.998 103.771 134.406 103.821 134.792 103.923C135.181 104.02 135.534 104.162 135.852 104.348C136.173 104.53 136.457 104.752 136.702 105.015C136.948 105.273 137.146 105.561 137.299 105.878L135.687 106.786C135.589 106.591 135.475 106.411 135.344 106.246C135.213 106.077 135.06 105.933 134.887 105.814C134.717 105.692 134.523 105.597 134.303 105.529C134.083 105.457 133.837 105.421 133.566 105.421C133.139 105.421 132.771 105.506 132.462 105.675C132.153 105.84 131.899 106.06 131.7 106.335C131.501 106.61 131.353 106.93 131.256 107.293C131.159 107.653 131.11 108.026 131.11 108.411V108.474ZM142.986 103.771C143.663 103.771 144.271 103.893 144.808 104.139C145.346 104.38 145.8 104.712 146.173 105.135C146.549 105.554 146.835 106.049 147.03 106.621C147.229 107.188 147.328 107.797 147.328 108.449C147.328 109.105 147.229 109.716 147.03 110.283C146.835 110.85 146.549 111.345 146.173 111.769C145.8 112.192 145.346 112.524 144.808 112.765C144.271 113.006 143.663 113.127 142.986 113.127C142.305 113.127 141.696 113.006 141.158 112.765C140.625 112.524 140.17 112.192 139.793 111.769C139.421 111.345 139.135 110.85 138.937 110.283C138.742 109.716 138.645 109.105 138.645 108.449C138.645 107.797 138.742 107.188 138.937 106.621C139.135 106.049 139.421 105.554 139.793 105.135C140.17 104.712 140.625 104.38 141.158 104.139C141.696 103.893 142.305 103.771 142.986 103.771ZM142.986 111.464C143.384 111.464 143.733 111.39 144.034 111.242C144.338 111.089 144.594 110.88 144.802 110.613C145.009 110.347 145.166 110.031 145.271 109.667C145.377 109.304 145.43 108.906 145.43 108.474V108.423C145.43 107.996 145.377 107.6 145.271 107.236C145.166 106.868 145.009 106.551 144.802 106.284C144.594 106.018 144.338 105.81 144.034 105.662C143.733 105.51 143.384 105.434 142.986 105.434C142.589 105.434 142.237 105.51 141.933 105.662C141.628 105.81 141.372 106.018 141.165 106.284C140.961 106.551 140.807 106.868 140.701 107.236C140.595 107.6 140.542 107.996 140.542 108.423V108.474C140.542 108.906 140.595 109.304 140.701 109.667C140.807 110.031 140.961 110.347 141.165 110.613C141.372 110.88 141.628 111.089 141.933 111.242C142.237 111.39 142.589 111.464 142.986 111.464ZM150.604 113L148.033 103.897H150.096L151.854 110.74H151.917L153.638 103.897H155.675L153.104 113H150.604ZM164.765 111.464C165.032 111.464 165.279 111.426 165.508 111.35C165.741 111.269 165.939 111.151 166.104 110.994C166.274 110.833 166.407 110.632 166.504 110.391C166.602 110.146 166.65 109.858 166.65 109.528V103.885H168.466V109.801C168.466 110.309 168.373 110.768 168.187 111.178C168.005 111.589 167.749 111.938 167.418 112.226C167.093 112.513 166.703 112.736 166.25 112.892C165.798 113.049 165.303 113.127 164.765 113.127C164.228 113.127 163.733 113.049 163.28 112.892C162.827 112.736 162.436 112.513 162.105 112.226C161.775 111.938 161.517 111.589 161.331 111.178C161.149 110.768 161.058 110.309 161.058 109.801V103.885H162.88V109.528C162.88 109.858 162.929 110.146 163.026 110.391C163.123 110.632 163.254 110.833 163.419 110.994C163.589 111.151 163.788 111.269 164.016 111.35C164.249 111.426 164.499 111.464 164.765 111.464ZM170.269 103.897H172.109V107.839L175.359 103.897H177.625L174.464 107.516L177.829 113H175.689L173.284 108.918L172.109 110.232V113H170.269V103.897Z" fill="white"/>
<ellipse cx="158.364" cy="109.5" rx="1.36364" ry="1.5" fill="#00FFE0"/>
<rect width="100" height="70" transform="translate(124 122)" fill="white"/>
<rect x="129" y="127" width="90" height="9" fill="#3A4756"/>
<path d="M133.057 141.5C135.025 141.5 136.613 143.081 136.613 145.022C136.613 146.963 135.025 148.544 133.057 148.544C131.088 148.544 129.5 146.963 129.5 145.022C129.5 143.081 131.088 141.5 133.057 141.5Z" fill="white" stroke="#3A4756"/>
<rect x="141.17" y="145.022" width="20.2837" height="0.804415" fill="#3A4756"/>
<path d="M133.057 151.958C135.025 151.958 136.613 153.539 136.613 155.48C136.613 157.421 135.025 159.001 133.057 159.001C131.088 159.001 129.5 157.421 129.5 155.48C129.5 153.539 131.088 151.958 133.057 151.958Z" fill="white" stroke="#3A4756"/>
<rect x="141.17" y="155.479" width="20.2837" height="0.804415" fill="#3A4756"/>
<path d="M133.057 162.415C135.025 162.415 136.613 163.996 136.613 165.938C136.613 167.878 135.025 169.459 133.057 169.459C131.088 169.459 129.5 167.878 129.5 165.938C129.5 163.996 131.088 162.415 133.057 162.415Z" fill="white" stroke="#3A4756"/>
<rect x="141.17" y="165.937" width="20.2837" height="0.804415" fill="#3A4756"/>
<path d="M133.057 172.456C135.025 172.456 136.613 174.037 136.613 175.979C136.613 177.919 135.025 179.5 133.057 179.5C131.088 179.5 129.5 177.919 129.5 175.979C129.5 174.037 131.088 172.456 133.057 172.456Z" fill="white" stroke="#3A4756"/>
<rect x="141.17" y="175.978" width="20.2837" height="0.804415" fill="#3A4756"/>
<g filter="url(#filter0_i_33514_58936)">
<rect x="129" y="185" width="14.8" height="5.69231" fill="#00823B"/>
</g>
<rect width="98" height="98" transform="translate(7 170)" fill="white"/>
<path d="M99 167.5C103.694 167.5 107.5 171.306 107.5 176V263C107.5 267.142 104.142 270.5 100 270.5H12C7.85786 270.5 4.5 267.142 4.5 263V176C4.5 171.306 8.30558 167.5 13 167.5H99Z" stroke="#3A4756" stroke-width="5"/>
<path d="M7 176C7 172.686 9.68629 170 13 170H99C102.314 170 105 172.686 105 176V194H7V176Z" fill="#008938"/>
<path d="M12.8789 177.598H18.5391V179.139H14.5781V180.926H18.2285V182.461H14.5781V186H12.8789V177.598ZM22.3594 179.602C22.8242 179.602 23.2461 179.686 23.625 179.854C24.0039 180.018 24.3281 180.246 24.5977 180.539C24.8672 180.832 25.0742 181.178 25.2188 181.576C25.3672 181.975 25.4414 182.404 25.4414 182.865C25.4414 183.33 25.3672 183.762 25.2188 184.16C25.0703 184.555 24.8613 184.896 24.5918 185.186C24.3223 185.475 23.998 185.703 23.6191 185.871C23.2402 186.035 22.8203 186.117 22.3594 186.117C21.8945 186.117 21.4727 186.035 21.0938 185.871C20.7148 185.703 20.3906 185.475 20.1211 185.186C19.8516 184.896 19.6426 184.555 19.4941 184.16C19.3457 183.762 19.2715 183.33 19.2715 182.865C19.2715 182.404 19.3438 181.975 19.4883 181.576C19.6367 181.178 19.8457 180.832 20.1152 180.539C20.3848 180.246 20.709 180.018 21.0879 179.854C21.4707 179.686 21.8945 179.602 22.3594 179.602ZM22.3594 184.617C22.5898 184.617 22.793 184.574 22.9688 184.488C23.1484 184.402 23.2988 184.283 23.4199 184.131C23.541 183.979 23.6328 183.797 23.6953 183.586C23.7578 183.371 23.7891 183.137 23.7891 182.883V182.842C23.7891 182.588 23.7578 182.355 23.6953 182.145C23.6328 181.93 23.541 181.746 23.4199 181.594C23.2988 181.438 23.1484 181.316 22.9688 181.23C22.793 181.145 22.5898 181.102 22.3594 181.102C22.1289 181.102 21.9238 181.145 21.7441 181.23C21.5684 181.316 21.4199 181.438 21.2988 181.594C21.1777 181.746 21.0859 181.93 21.0234 182.145C20.9609 182.355 20.9297 182.588 20.9297 182.842V182.883C20.9297 183.137 20.9609 183.371 21.0234 183.586C21.0859 183.797 21.1777 183.979 21.2988 184.131C21.4199 184.283 21.5684 184.402 21.7441 184.488C21.9238 184.574 22.1289 184.617 22.3594 184.617ZM30.041 181.295H29.8711C29.6406 181.295 29.4199 181.318 29.209 181.365C29.002 181.412 28.8184 181.498 28.6582 181.623C28.498 181.744 28.3691 181.912 28.2715 182.127C28.1777 182.342 28.1309 182.617 28.1309 182.953V186H26.5137V179.725H28.1309V180.434C28.1973 180.328 28.2832 180.227 28.3887 180.129C28.4941 180.031 28.6172 179.945 28.7578 179.871C28.8984 179.793 29.0566 179.73 29.2324 179.684C29.4082 179.637 29.5977 179.613 29.8008 179.613H30.041V181.295ZM36.3398 186H34.7168V182.35C34.7168 182.127 34.6914 181.939 34.6406 181.787C34.5938 181.631 34.5273 181.506 34.4414 181.412C34.3555 181.314 34.2559 181.246 34.1426 181.207C34.0293 181.164 33.9062 181.143 33.7734 181.143C33.6172 181.143 33.4707 181.17 33.334 181.225C33.2012 181.279 33.084 181.365 32.9824 181.482C32.8848 181.6 32.8066 181.75 32.748 181.934C32.6934 182.113 32.666 182.328 32.666 182.578V186H31.0488V179.725H32.666V180.275C32.873 180.045 33.1133 179.875 33.3867 179.766C33.6641 179.656 33.9609 179.602 34.2773 179.602C34.6016 179.602 34.9043 179.668 35.1855 179.801C35.4707 179.934 35.707 180.152 35.8945 180.457C36.0039 180.301 36.1289 180.168 36.2695 180.059C36.4141 179.949 36.5684 179.861 36.7324 179.795C36.8965 179.729 37.0664 179.68 37.2422 179.648C37.4219 179.617 37.6055 179.602 37.793 179.602C38.1445 179.602 38.457 179.66 38.7305 179.777C39.0078 179.891 39.2422 180.045 39.4336 180.24C39.625 180.436 39.7715 180.66 39.873 180.914C39.9746 181.168 40.0254 181.436 40.0254 181.717V186H38.3906V182.35C38.3906 182.127 38.3652 181.939 38.3145 181.787C38.2676 181.631 38.2012 181.506 38.1152 181.412C38.0293 181.314 37.9277 181.246 37.8105 181.207C37.6973 181.164 37.5742 181.143 37.4414 181.143C37.2852 181.143 37.1406 181.17 37.0078 181.225C36.875 181.279 36.7578 181.365 36.6562 181.482C36.5586 181.6 36.4805 181.75 36.4219 181.934C36.3672 182.113 36.3398 182.328 36.3398 182.578V186ZM41.8184 183.996C42.0488 184.203 42.3242 184.381 42.6445 184.529C42.9648 184.678 43.2891 184.752 43.6172 184.752C43.8555 184.752 44.043 184.707 44.1797 184.617C44.3164 184.523 44.3848 184.404 44.3848 184.26C44.3848 184.014 44.1211 183.822 43.5938 183.686L43.1367 183.562C42.9102 183.508 42.6816 183.434 42.4512 183.34C42.2207 183.242 42.0078 183.115 41.8125 182.959C41.6211 182.803 41.4648 182.613 41.3438 182.391C41.2266 182.164 41.168 181.887 41.168 181.559C41.168 181.297 41.2246 181.049 41.3379 180.814C41.4551 180.576 41.6191 180.367 41.8301 180.188C42.0449 180.008 42.3047 179.865 42.6094 179.76C42.9141 179.654 43.2539 179.602 43.6289 179.602C44.1641 179.602 44.6406 179.686 45.0586 179.854C45.4805 180.021 45.8125 180.211 46.0547 180.422L45.2109 181.5C45.0117 181.355 44.7754 181.232 44.502 181.131C44.2324 181.025 43.9609 180.973 43.6875 180.973C43.4336 180.973 43.2363 181.02 43.0957 181.113C42.9551 181.203 42.8848 181.312 42.8848 181.441C42.8848 181.578 42.9453 181.689 43.0664 181.775C43.1914 181.857 43.3711 181.93 43.6055 181.992L44.2852 182.186C44.9336 182.369 45.3984 182.617 45.6797 182.93C45.9609 183.242 46.1016 183.637 46.1016 184.113C46.1016 184.379 46.0469 184.633 45.9375 184.875C45.8281 185.113 45.668 185.326 45.457 185.514C45.2461 185.701 44.9844 185.85 44.6719 185.959C44.3594 186.064 44.0039 186.117 43.6055 186.117C43.3008 186.117 43.0137 186.09 42.7441 186.035C42.4785 185.98 42.2305 185.906 42 185.812C41.7734 185.715 41.5684 185.605 41.3848 185.484C41.2012 185.363 41.0449 185.242 40.916 185.121L41.8184 183.996ZM56.6602 181.799C56.6602 182.428 56.5742 183.002 56.4023 183.521C56.2344 184.037 55.9805 184.479 55.6406 184.846C55.3047 185.213 54.8828 185.498 54.375 185.701C53.8672 185.9 53.2734 186 52.5938 186H49.5V177.598H52.5938C53.2734 177.598 53.8672 177.699 54.375 177.902C54.8828 178.102 55.3047 178.385 55.6406 178.752C55.9805 179.119 56.2344 179.562 56.4023 180.082C56.5742 180.598 56.6602 181.17 56.6602 181.799ZM54.8965 181.635C54.8965 181.279 54.8516 180.949 54.7617 180.645C54.6758 180.336 54.5352 180.068 54.3398 179.842C54.1484 179.615 53.8984 179.438 53.5898 179.309C53.2812 179.176 52.9082 179.109 52.4707 179.109H51.1992V184.488H52.4707C52.9043 184.488 53.2754 184.424 53.584 184.295C53.8926 184.162 54.1426 183.982 54.334 183.756C54.5293 183.525 54.6719 183.256 54.7617 182.947C54.8516 182.639 54.8965 182.309 54.8965 181.957V181.635ZM59.2031 183.422C59.2305 183.609 59.2891 183.781 59.3789 183.938C59.4727 184.094 59.5898 184.229 59.7305 184.342C59.8711 184.451 60.0332 184.537 60.2168 184.6C60.4004 184.662 60.5957 184.693 60.8027 184.693C61.041 184.693 61.2988 184.648 61.5762 184.559C61.8535 184.465 62.1074 184.33 62.3379 184.154L63.1172 185.291C62.8242 185.537 62.4648 185.736 62.0391 185.889C61.6133 186.041 61.1602 186.117 60.6797 186.117C60.2461 186.117 59.8379 186.043 59.4551 185.895C59.0723 185.746 58.7363 185.531 58.4473 185.25C58.1621 184.969 57.9355 184.627 57.7676 184.225C57.6035 183.822 57.5215 183.369 57.5215 182.865C57.5215 182.404 57.5938 181.975 57.7383 181.576C57.8867 181.178 58.0918 180.832 58.3535 180.539C58.6191 180.246 58.9355 180.018 59.3027 179.854C59.6699 179.686 60.0762 179.602 60.5215 179.602C60.9355 179.602 61.3203 179.678 61.6758 179.83C62.0312 179.979 62.3398 180.189 62.6016 180.463C62.8633 180.732 63.0684 181.057 63.2168 181.436C63.3652 181.814 63.4395 182.232 63.4395 182.689V183.422H59.2031ZM60.5156 181.008C60.168 181.008 59.873 181.125 59.6309 181.359C59.3926 181.59 59.2539 181.869 59.2148 182.197H61.7461C61.7383 181.865 61.6172 181.584 61.3828 181.354C61.1484 181.123 60.8594 181.008 60.5156 181.008ZM64.916 183.996C65.1465 184.203 65.4219 184.381 65.7422 184.529C66.0625 184.678 66.3867 184.752 66.7148 184.752C66.9531 184.752 67.1406 184.707 67.2773 184.617C67.4141 184.523 67.4824 184.404 67.4824 184.26C67.4824 184.014 67.2188 183.822 66.6914 183.686L66.2344 183.562C66.0078 183.508 65.7793 183.434 65.5488 183.34C65.3184 183.242 65.1055 183.115 64.9102 182.959C64.7188 182.803 64.5625 182.613 64.4414 182.391C64.3242 182.164 64.2656 181.887 64.2656 181.559C64.2656 181.297 64.3223 181.049 64.4355 180.814C64.5527 180.576 64.7168 180.367 64.9277 180.188C65.1426 180.008 65.4023 179.865 65.707 179.76C66.0117 179.654 66.3516 179.602 66.7266 179.602C67.2617 179.602 67.7383 179.686 68.1562 179.854C68.5781 180.021 68.9102 180.211 69.1523 180.422L68.3086 181.5C68.1094 181.355 67.873 181.232 67.5996 181.131C67.3301 181.025 67.0586 180.973 66.7852 180.973C66.5312 180.973 66.334 181.02 66.1934 181.113C66.0527 181.203 65.9824 181.312 65.9824 181.441C65.9824 181.578 66.043 181.689 66.1641 181.775C66.2891 181.857 66.4688 181.93 66.7031 181.992L67.3828 182.186C68.0312 182.369 68.4961 182.617 68.7773 182.93C69.0586 183.242 69.1992 183.637 69.1992 184.113C69.1992 184.379 69.1445 184.633 69.0352 184.875C68.9258 185.113 68.7656 185.326 68.5547 185.514C68.3438 185.701 68.082 185.85 67.7695 185.959C67.457 186.064 67.1016 186.117 66.7031 186.117C66.3984 186.117 66.1113 186.09 65.8418 186.035C65.5762 185.98 65.3281 185.906 65.0977 185.812C64.8711 185.715 64.666 185.605 64.4824 185.484C64.2988 185.363 64.1426 185.242 64.0137 185.121L64.916 183.996ZM71.8652 186H70.248V179.725H71.8652V186ZM70.0781 178.078C70.0781 177.945 70.1035 177.82 70.1543 177.703C70.2051 177.582 70.2734 177.479 70.3594 177.393C70.4492 177.303 70.5527 177.232 70.6699 177.182C70.7871 177.131 70.9141 177.105 71.0508 177.105C71.1836 177.105 71.3086 177.131 71.4258 177.182C71.5469 177.232 71.6504 177.303 71.7363 177.393C71.8262 177.479 71.8965 177.582 71.9473 177.703C71.998 177.82 72.0234 177.945 72.0234 178.078C72.0234 178.215 71.998 178.342 71.9473 178.459C71.8965 178.576 71.8262 178.68 71.7363 178.77C71.6504 178.855 71.5469 178.924 71.4258 178.975C71.3086 179.025 71.1836 179.051 71.0508 179.051C70.9141 179.051 70.7871 179.025 70.6699 178.975C70.5527 178.924 70.4492 178.855 70.3594 178.77C70.2734 178.68 70.2051 178.576 70.1543 178.459C70.1035 178.342 70.0781 178.215 70.0781 178.078ZM77.0742 184.887C76.9297 185.062 76.7266 185.203 76.4648 185.309C76.207 185.41 75.9258 185.461 75.6211 185.461C75.1992 185.461 74.8242 185.387 74.4961 185.238C74.168 185.09 73.8906 184.887 73.6641 184.629C73.4414 184.367 73.2695 184.059 73.1484 183.703C73.0312 183.348 72.9727 182.957 72.9727 182.531C72.9727 182.117 73.0312 181.73 73.1484 181.371C73.2695 181.008 73.4414 180.697 73.6641 180.439C73.8906 180.178 74.168 179.973 74.4961 179.824C74.8242 179.676 75.1992 179.602 75.6211 179.602C75.9258 179.602 76.207 179.654 76.4648 179.76C76.7266 179.865 76.9297 180.006 77.0742 180.182V179.725H78.6973V185.941C78.6973 186.324 78.625 186.652 78.4805 186.926C78.3359 187.203 78.1367 187.43 77.8828 187.605C77.6328 187.781 77.3418 187.908 77.0098 187.986C76.6777 188.068 76.3242 188.109 75.9492 188.109C75.4922 188.109 75.0156 188.055 74.5195 187.945C74.0234 187.84 73.5957 187.707 73.2363 187.547L73.6934 186.24C73.8027 186.287 73.9375 186.338 74.0977 186.393C74.2578 186.451 74.4297 186.502 74.6133 186.545C74.7969 186.588 74.9883 186.623 75.1875 186.65C75.3906 186.682 75.5879 186.697 75.7793 186.697C75.9473 186.697 76.1094 186.68 76.2656 186.645C76.4219 186.613 76.5586 186.559 76.6758 186.48C76.7969 186.406 76.8926 186.307 76.9629 186.182C77.0371 186.061 77.0742 185.904 77.0742 185.713V184.887ZM74.6367 182.555C74.6367 182.762 74.6582 182.957 74.7012 183.141C74.748 183.32 74.8203 183.475 74.918 183.604C75.0195 183.729 75.1484 183.828 75.3047 183.902C75.4609 183.973 75.6504 184.008 75.873 184.008C76.3145 184.008 76.6289 183.869 76.8164 183.592C77.0039 183.311 77.0977 182.965 77.0977 182.555V182.508C77.0977 182.301 77.0762 182.107 77.0332 181.928C76.9902 181.748 76.9199 181.594 76.8223 181.465C76.7246 181.336 76.5977 181.236 76.4414 181.166C76.2891 181.092 76.0996 181.055 75.873 181.055C75.4355 181.055 75.1191 181.193 74.9238 181.471C74.7324 181.748 74.6367 182.094 74.6367 182.508V182.555ZM80.0918 179.725H81.709V180.264C81.7949 180.178 81.8906 180.096 81.9961 180.018C82.1055 179.936 82.2246 179.865 82.3535 179.807C82.4824 179.744 82.625 179.695 82.7812 179.66C82.9414 179.621 83.1172 179.602 83.3086 179.602C83.6484 179.602 83.9531 179.658 84.2227 179.771C84.4922 179.881 84.7188 180.033 84.9023 180.229C85.0898 180.424 85.2324 180.652 85.3301 180.914C85.4277 181.176 85.4766 181.459 85.4766 181.764V186H83.8594V182.35C83.8594 182.127 83.834 181.939 83.7832 181.787C83.7324 181.631 83.6621 181.506 83.5723 181.412C83.4863 181.314 83.3828 181.244 83.2617 181.201C83.1445 181.154 83.0156 181.131 82.875 181.131C82.7109 181.131 82.5566 181.16 82.4121 181.219C82.2715 181.277 82.1484 181.367 82.043 181.488C81.9375 181.605 81.8555 181.754 81.7969 181.934C81.7383 182.113 81.709 182.324 81.709 182.566V186H80.0918V179.725ZM88.1836 183.422C88.2109 183.609 88.2695 183.781 88.3594 183.938C88.4531 184.094 88.5703 184.229 88.7109 184.342C88.8516 184.451 89.0137 184.537 89.1973 184.6C89.3809 184.662 89.5762 184.693 89.7832 184.693C90.0215 184.693 90.2793 184.648 90.5566 184.559C90.834 184.465 91.0879 184.33 91.3184 184.154L92.0977 185.291C91.8047 185.537 91.4453 185.736 91.0195 185.889C90.5938 186.041 90.1406 186.117 89.6602 186.117C89.2266 186.117 88.8184 186.043 88.4355 185.895C88.0527 185.746 87.7168 185.531 87.4277 185.25C87.1426 184.969 86.916 184.627 86.748 184.225C86.584 183.822 86.502 183.369 86.502 182.865C86.502 182.404 86.5742 181.975 86.7188 181.576C86.8672 181.178 87.0723 180.832 87.334 180.539C87.5996 180.246 87.916 180.018 88.2832 179.854C88.6504 179.686 89.0566 179.602 89.502 179.602C89.916 179.602 90.3008 179.678 90.6562 179.83C91.0117 179.979 91.3203 180.189 91.582 180.463C91.8438 180.732 92.0488 181.057 92.1973 181.436C92.3457 181.814 92.4199 182.232 92.4199 182.689V183.422H88.1836ZM89.4961 181.008C89.1484 181.008 88.8535 181.125 88.6113 181.359C88.373 181.59 88.2344 181.869 88.1953 182.197H90.7266C90.7188 181.865 90.5977 181.584 90.3633 181.354C90.1289 181.123 89.8398 181.008 89.4961 181.008ZM96.9785 181.295H96.8086C96.5781 181.295 96.3574 181.318 96.1465 181.365C95.9395 181.412 95.7559 181.498 95.5957 181.623C95.4355 181.744 95.3066 181.912 95.209 182.127C95.1152 182.342 95.0684 182.617 95.0684 182.953V186H93.4512V179.725H95.0684V180.434C95.1348 180.328 95.2207 180.227 95.3262 180.129C95.4316 180.031 95.5547 179.945 95.6953 179.871C95.8359 179.793 95.9941 179.73 96.1699 179.684C96.3457 179.637 96.5352 179.613 96.7383 179.613H96.9785V181.295Z" fill="white"/>
<rect width="98" height="70.4654" transform="translate(7 194)" fill="white"/>
<mask id="path-18-outside-1_33514_58936" maskUnits="userSpaceOnUse" x="12" y="198" width="53" height="15" fill="black">
<rect fill="white" x="12" y="198" width="53" height="15"/>
<path d="M12 199H64V212.302H12V199Z"/>
</mask>
<path d="M12 199H64V212.302H12V199Z" fill="#F7F7F7"/>
<path d="M64 199H64.2L64 198.8V199ZM64 212.302V212.502L64.2 212.302H64ZM12 199V199.2H64V199V198.8H12V199ZM64 199H63.8V212.302H64H64.2V199H64ZM64 212.302V212.102H12V212.302V212.502H64V212.302Z" fill="#B1B4B6" mask="url(#path-18-outside-1_33514_58936)"/>
<mask id="path-20-inside-2_33514_58936" fill="white">
<path d="M12 199H64V212.302H12V199Z"/>
</mask>
<path d="M12 199H64V212.302H12V199Z" fill="#F7F7F7"/>
<path d="M12 212.302H13V199H12H11V212.302H12Z" fill="#008938" mask="url(#path-20-inside-2_33514_58936)"/>
<mask id="path-22-outside-3_33514_58936" maskUnits="userSpaceOnUse" x="12" y="213.721" width="53" height="15" fill="black">
<rect fill="white" x="12" y="213.721" width="53" height="15"/>
<path d="M12 214.721H64V228.023H12V214.721Z"/>
</mask>
<path d="M12 214.721H64V228.023H12V214.721Z" fill="#F7F7F7"/>
<path d="M64 214.721H64.2L64 214.521V214.721ZM64 228.023V228.223L64.2 228.023H64ZM12 214.721V214.921H64V214.721V214.521H12V214.721ZM64 214.721H63.8V228.023H64H64.2V214.721H64ZM64 228.023V227.823H12V228.023V228.223H64V228.023Z" fill="#B1B4B6" mask="url(#path-22-outside-3_33514_58936)"/>
<mask id="path-24-inside-4_33514_58936" fill="white">
<path d="M12 214.721H64V228.023H12V214.721Z"/>
</mask>
<path d="M12 214.721H64V228.023H12V214.721Z" fill="#F7F7F7"/>
<path d="M12 228.023H13V214.721H12H11V228.023H12Z" fill="#008938" mask="url(#path-24-inside-4_33514_58936)"/>
<mask id="path-26-outside-5_33514_58936" maskUnits="userSpaceOnUse" x="12" y="229.442" width="53" height="15" fill="black">
<rect fill="white" x="12" y="229.442" width="53" height="15"/>
<path d="M12 230.442H64V243.744H12V230.442Z"/>
</mask>
<path d="M12 230.442H64V243.744H12V230.442Z" fill="#F7F7F7"/>
<path d="M64 230.442H64.2L64 230.242V230.442ZM64 243.744V243.944L64.2 243.744H64ZM12 230.442V230.642H64V230.442V230.242H12V230.442ZM64 230.442H63.8V243.744H64H64.2V230.442H64ZM64 243.744V243.544H12V243.744V243.944H64V243.744Z" fill="#B1B4B6" mask="url(#path-26-outside-5_33514_58936)"/>
<mask id="path-28-inside-6_33514_58936" fill="white">
<path d="M12 230.442H64V243.744H12V230.442Z"/>
</mask>
<path d="M12 230.442H64V243.744H12V230.442Z" fill="#F7F7F7"/>
<path d="M12 243.744H13V230.442H12H11V243.744H12Z" fill="#008938" mask="url(#path-28-inside-6_33514_58936)"/>
<mask id="path-30-outside-7_33514_58936" maskUnits="userSpaceOnUse" x="12" y="245.163" width="53" height="15" fill="black">
<rect fill="white" x="12" y="245.163" width="53" height="15"/>
<path d="M12 246.163H64V259.465H12V246.163Z"/>
</mask>
<path d="M12 246.163H64V259.465H12V246.163Z" fill="#F7F7F7"/>
<path d="M64 246.163H64.2L64 245.963V246.163ZM64 259.465V259.665L64.2 259.465H64ZM12 246.163V246.363H64V246.163V245.963H12V246.163ZM64 246.163H63.8V259.465H64H64.2V246.163H64ZM64 259.465V259.265H12V259.465V259.665H64V259.465Z" fill="#B1B4B6" mask="url(#path-30-outside-7_33514_58936)"/>
<mask id="path-32-inside-8_33514_58936" fill="white">
<path d="M12 246.163H64V259.465H12V246.163Z"/>
</mask>
<path d="M12 246.163H64V259.465H12V246.163Z" fill="#F7F7F7"/>
<path d="M12 259.465H13V246.163H12H11V259.465H12Z" fill="#008938" mask="url(#path-32-inside-8_33514_58936)"/>
<path d="M330.247 16.3599H240.077C238.367 16.3599 236.98 17.7491 236.98 19.4629V105.66C236.98 107.373 238.367 108.763 240.077 108.763H330.247C331.957 108.763 333.344 107.373 333.344 105.66V19.4629C333.344 17.7491 331.957 16.3599 330.247 16.3599Z" fill="#D7DAE1" stroke="#3A4756" stroke-width="4.56504" stroke-linecap="round" stroke-linejoin="round"/>
<path d="M260.577 34.3442H248.008V43.5572H260.577V34.3442Z" fill="white"/>
<path d="M285.198 34.1543H272.629V43.3673H285.198V34.1543Z" fill="#008938"/>
<path d="M334.444 44.0264H321.875V53.2394H334.444V44.0264Z" fill="#008938"/>
<path d="M310.012 43.647H297.443V52.86H310.012V43.647Z" fill="white"/>
<path d="M321.942 34.7241H309.373V43.9371H321.942V34.7241Z" fill="#008938"/>
<path d="M297.223 80.9824H284.654V90.1954H297.223V80.9824Z" fill="white"/>
<path d="M296.83 100.146H285.309V108.591H296.83V100.146Z" fill="white"/>
<path d="M333.098 99.7622H321.576V108.208H333.098V99.7622Z" fill="white"/>
<path d="M272.626 71.6885H260.057V80.9015H272.626V71.6885Z" fill="white"/>
<path d="M247.992 43.5986H236.34V52.8116H247.992V43.5986Z" fill="white"/>
<path d="M321.837 53.3428H309.268V62.5558H321.837V53.3428Z" fill="white"/>
<path d="M321.968 80.8047H309.398V90.0177H321.968V80.8047Z" fill="white"/>
<path d="M272.741 90.1948H260.172V99.4078H272.741V90.1948Z" fill="white"/>
<path d="M284.786 52.811H272.217V62.024H284.786V52.811Z" fill="white"/>
<path d="M260.563 62.3789H247.994V71.5919H260.563V62.3789Z" fill="white"/>
<path d="M309.659 71.5635H297.09V80.7765H309.659V71.5635Z" fill="white"/>
<path d="M309.661 99.4077H297.092V108.621H309.661V99.4077Z" fill="#008938"/>
<path d="M260.303 99.0537H247.734V108.267H260.303V99.0537Z" fill="#008938"/>
<path d="M248.29 24.9946H237.879V34.2076H248.29V24.9946Z" fill="#008938"/>
<path d="M321.027 43.561H309.568V52.774H321.027V43.561Z" fill="#008938"/>
<path d="M272.741 43.5986H260.172V52.8116H272.741V43.5986Z" fill="#008938"/>
<path d="M297.485 62.0244H284.916V71.2374H297.485V62.0244Z" fill="#008938"/>
<path d="M284.786 81.1587H272.217V90.3717H284.786V81.1587Z" fill="#008938"/>
<path d="M247.994 81.1587H236.211V90.3717H247.994V81.1587Z" fill="#008938"/>
<path d="M248.518 52.9883H236.734V62.2013H248.518V52.9883Z" fill="#008938"/>
<path d="M321.837 90.3721H309.268V99.5851H321.837V90.3721Z" fill="#008938"/>
<path d="M333.359 62.0415H321.9V71.2545H333.359V62.0415Z" fill="#008938"/>
<path d="M248.125 28.8931V108.306" stroke="#3A4756" stroke-width="2.28252"/>
<path d="M260.389 28.8931V108.306" stroke="#3A4756" stroke-width="2.28252"/>
<path d="M272.652 28.8931V108.306" stroke="#3A4756" stroke-width="2.28252"/>
<path d="M284.916 28.8931V108.306" stroke="#3A4756" stroke-width="2.28252"/>
<path d="M297.18 28.8931V108.306" stroke="#3A4756" stroke-width="2.28252"/>
<path d="M309.443 28.8931V108.306" stroke="#3A4756" stroke-width="2.28252"/>
<path d="M321.707 28.8931V108.306" stroke="#3A4756" stroke-width="2.28252"/>
<path d="M237.221 34.3853H332.043" stroke="#3A4756" stroke-width="2.28252" stroke-linecap="square"/>
<path d="M237.221 43.7246H332.043" stroke="#3A4756" stroke-width="2.28252" stroke-linecap="square"/>
<path d="M237.221 53.0645H332.043" stroke="#3A4756" stroke-width="2.28252" stroke-linecap="square"/>
<path d="M237.221 62.4043H332.043" stroke="#3A4756" stroke-width="2.28252" stroke-linecap="square"/>
<path d="M237.221 71.7432H332.043" stroke="#3A4756" stroke-width="2.28252" stroke-linecap="square"/>
<path d="M237.221 81.083H332.043" stroke="#3A4756" stroke-width="2.28252" stroke-linecap="square"/>
<path d="M237.221 90.4229H332.043" stroke="#3A4756" stroke-width="2.28252" stroke-linecap="square"/>
<path d="M237.221 99.7622H332.043" stroke="#3A4756" stroke-width="2.28252" stroke-linecap="square"/>
<path d="M338.225 8H232.097C230.387 8 229 9.38926 229 11.103V31.3028C229 33.0165 230.387 34.4058 232.097 34.4058H338.225C339.936 34.4058 341.322 33.0165 341.322 31.3028V11.103C341.322 9.38926 339.936 8 338.225 8Z" fill="white" stroke="#3A4756" stroke-width="4.56504"/>
<path d="M270.658 19.0034H256.461V23.403H270.658V19.0034Z" fill="#3A4756"/>
<path d="M229 26.4507V31.5363C229 33.1264 230.278 34.4065 231.865 34.4065H338.457C340.044 34.4065 341.322 33.1264 341.322 31.5363V26.4507H229Z" fill="#ECEFF4"/>
<rect x="234.477" y="12.7305" width="15.7169" height="16.3789" rx="7.85843" fill="#008938"/>
<rect x="234.477" y="12.7305" width="15.7169" height="16.3789" rx="7.85843" stroke="#3A4756" stroke-width="3"/>
<path d="M248.088 17.2865C248.036 17.0138 247.919 16.7642 247.756 16.558C247.722 16.5131 247.686 16.4728 247.647 16.4326C247.358 16.1319 246.952 15.9443 246.509 15.9443H238.127C237.684 15.9443 237.279 16.1319 236.989 16.4326C236.95 16.4728 236.914 16.5131 236.88 16.558C236.717 16.7642 236.6 17.0138 236.549 17.2865C236.528 17.3917 236.518 17.5005 236.518 17.6105V23.7059C236.518 23.9397 236.565 24.1645 236.651 24.3675C236.73 24.5613 236.847 24.7366 236.989 24.8836C237.025 24.9208 237.061 24.955 237.1 24.9891C237.378 25.2277 237.738 25.3719 238.127 25.3719H246.509C246.898 25.3719 247.259 25.2277 247.536 24.9875C247.575 24.955 247.611 24.9208 247.647 24.8836C247.789 24.7366 247.906 24.5613 247.987 24.3675V24.366C248.072 24.163 248.118 23.9397 248.118 23.7059V17.6105C248.118 17.5005 248.108 17.3917 248.088 17.2865ZM237.571 17.0354C237.715 16.8867 237.908 16.7967 238.127 16.7967H246.509C246.728 16.7967 246.922 16.8867 247.064 17.0354C247.09 17.0619 247.114 17.0914 247.135 17.1207L242.741 21.0851C242.62 21.1951 242.471 21.2494 242.318 21.2494C242.167 21.2494 242.017 21.1951 241.894 21.0851L237.503 17.119C237.522 17.0897 237.546 17.0619 237.571 17.0354ZM237.341 23.7059V18.001L240.52 20.8728L237.342 23.7414C237.341 23.7306 237.341 23.7183 237.341 23.7059ZM246.509 24.5194H238.127C237.984 24.5194 237.851 24.4806 237.738 24.4126L241.09 21.3874L241.403 21.6693C241.665 21.905 241.993 22.0243 242.318 22.0243C242.644 22.0243 242.972 21.905 243.234 21.6693L243.547 21.3874L246.898 24.4126C246.785 24.4806 246.651 24.5194 246.509 24.5194ZM247.295 23.7059C247.295 23.7183 247.295 23.7306 247.293 23.7414L244.116 20.8744L247.295 18.0026V23.7059Z" fill="white"/>
<path d="M278.042 19.0034H273.396V23.403H278.042V19.0034Z" fill="#00A33B"/>
<path d="M285.422 19.0034H280.777V23.403H285.422V19.0034Z" fill="#00A33B"/>
<path d="M338.225 8H232.097C230.387 8 229 9.38926 229 11.103V31.3028C229 33.0165 230.387 34.4058 232.097 34.4058H338.225C339.936 34.4058 341.322 33.0165 341.322 31.3028V11.103C341.322 9.38926 339.936 8 338.225 8Z" stroke="#3A4756" stroke-width="4.565"/>
<path d="M235.748 34.4141V105.65C235.748 108.035 237.692 110 240.073 110H330.248C332.628 110 334.573 108.035 334.573 105.65V34.4141H332.097V105.65C332.097 106.703 331.299 107.519 330.248 107.519H240.073C239.022 107.519 238.224 106.703 238.224 105.65V34.4141H235.748Z" fill="#3A4756"/>
<path d="M200.597 211.299C200.597 223.062 191.062 232.597 179.299 232.597C167.536 232.597 158 223.062 158 211.299C158 199.536 167.536 190 179.299 190C191.062 190 200.597 199.536 200.597 211.299Z" fill="#008938" stroke="#3A4756" stroke-width="6"/>
<path d="M190.69 201.663L189.959 202.393L175.883 216.549L168.638 209.257L167.923 208.526L167.192 209.257L164.92 211.545L164.205 212.26L164.92 212.975L175.168 223.286L175.883 224.001L176.597 223.286L193.677 206.111L194.392 205.396L193.677 204.681L191.405 202.393L190.69 201.663Z" fill="white"/>
<path d="M306.597 117.299C306.597 129.062 297.062 138.597 285.299 138.597C273.536 138.597 264 129.062 264 117.299C264 105.536 273.536 96 285.299 96C297.062 96 306.597 105.536 306.597 117.299Z" fill="#008938" stroke="#3A4756" stroke-width="6"/>
<path d="M296.69 107.663L295.959 108.394L281.883 122.55L274.638 115.257L273.923 114.527L273.192 115.257L270.92 117.545L270.205 118.26L270.92 118.975L281.168 129.286L281.883 130.001L282.597 129.286L299.677 112.112L300.392 111.397L299.677 110.682L297.405 108.394L296.69 107.663Z" fill="white"/>
<path d="M177.5 61V93.8045" stroke="#3A4756" stroke-width="7.29816" stroke-linecap="square"/>
<path d="M232.999 61.0684H177.953" stroke="#3A4756" stroke-width="7.65554" stroke-linecap="square"/>
<path d="M56 129V161.804" stroke="#3A4756" stroke-width="7.29816" stroke-linecap="square"/>
<path d="M116 129.068H56.4902" stroke="#3A4756" stroke-width="7.65554" stroke-linecap="square"/>
<rect x="162" y="47" width="31" height="31" rx="15.5" fill="#008938"/>
<rect x="162" y="47" width="31" height="31" rx="15.5" stroke="#3A4756" stroke-width="6"/>
<path d="M173.463 60.7762H171.157C170.573 60.7762 170.1 61.2475 170.1 61.8313C170.1 63.573 170.1 67.0921 170.1 69.4619C170.1 72.1183 174.208 72.7191 177.5 72.7191C180.791 72.7191 184.9 72.1183 184.9 69.4619C184.9 67.0922 184.9 63.573 184.9 61.8313C184.9 61.2475 184.426 60.7762 183.842 60.7762H181.536M173.463 60.7762C173.463 60.7762 173.463 58.0619 173.463 56.4333C173.463 54.4788 175.078 52.6333 177.5 52.6333C179.922 52.6333 181.536 54.4788 181.536 56.4333C181.536 58.0619 181.536 60.7762 181.536 60.7762M173.463 60.7762H181.536" stroke="white" stroke-width="2" stroke-linecap="round" stroke-linejoin="round"/>
<path fill-rule="evenodd" clip-rule="evenodd" d="M178.557 67.0299V68.4908C178.557 69.0747 178.084 69.5479 177.5 69.5479C176.916 69.5479 176.443 69.0747 176.443 68.4908V67.0299C176.118 66.7395 175.914 66.3175 175.914 65.8479C175.914 64.9722 176.624 64.2622 177.5 64.2622C178.376 64.2622 179.086 64.9722 179.086 65.8479C179.086 66.3175 178.881 66.7395 178.557 67.0299Z" fill="white"/>
</g>
<defs>
<filter id="filter0_i_33514_58936" x="129" y="185" width="14.8008" height="5.69238" filterUnits="userSpaceOnUse" color-interpolation-filters="sRGB">
<feFlood flood-opacity="0" result="BackgroundImageFix"/>
<feBlend mode="normal" in="SourceGraphic" in2="BackgroundImageFix" result="shape"/>
<feColorMatrix in="SourceAlpha" type="matrix" values="0 0 0 0 0 0 0 0 0 0 0 0 0 0 0 0 0 0 127 0" result="hardAlpha"/>
<feOffset dy="-1"/>
<feComposite in2="hardAlpha" operator="arithmetic" k2="-1" k3="1"/>
<feColorMatrix type="matrix" values="0 0 0 0 0 0 0 0 0 0.392157 0 0 0 0 0.207843 0 0 0 1 0"/>
<feBlend mode="normal" in2="shape" result="effect1_innerShadow_33514_58936"/>
</filter>
<clipPath id="clip0_33514_58936">
<rect width="346" height="274" fill="white"/>
</clipPath>
</defs>
</svg>
